700 0 12 0           
4 LibG 19 ASM 219.0.0.5600 NT 24 Mon Aug 26 23:49:31 2013 
1 9.9999999999999995e-007 1e-010 
body $-1 -1 $-1 $12 $-1 $-1 #
body $-1 -1 $-1 $13 $-1 $-1 #
body $-1 -1 $-1 $14 $-1 $-1 #
body $-1 -1 $-1 $15 $-1 $-1 #
body $-1 -1 $-1 $16 $-1 $-1 #
body $-1 -1 $-1 $17 $-1 $-1 #
body $-1 -1 $-1 $18 $-1 $-1 #
body $-1 -1 $-1 $19 $-1 $-1 #
body $-1 -1 $-1 $20 $-1 $-1 #
body $-1 -1 $-1 $21 $-1 $-1 #
body $-1 -1 $-1 $22 $-1 $-1 #
body $-1 -1 $-1 $23 $-1 $-1 #
lump $-1 -1 $-1 $-1 $24 $0 #
lump $-1 -1 $-1 $-1 $25 $1 #
lump $-1 -1 $-1 $-1 $26 $2 #
lump $-1 -1 $-1 $-1 $27 $3 #
lump $-1 -1 $-1 $-1 $28 $4 #
lump $-1 -1 $-1 $-1 $29 $5 #
lump $-1 -1 $-1 $-1 $30 $6 #
lump $-1 -1 $-1 $-1 $31 $7 #
lump $-1 -1 $-1 $-1 $32 $8 #
lump $-1 -1 $-1 $-1 $33 $9 #
lump $-1 -1 $-1 $-1 $34 $10 #
lump $-1 -1 $-1 $-1 $35 $11 #
shell $-1 -1 $-1 $-1 $-1 $36 $-1 $12 #
shell $-1 -1 $-1 $-1 $-1 $37 $-1 $13 #
shell $-1 -1 $-1 $-1 $-1 $38 $-1 $14 #
shell $-1 -1 $-1 $-1 $-1 $39 $-1 $15 #
shell $-1 -1 $-1 $-1 $-1 $40 $-1 $16 #
shell $-1 -1 $-1 $-1 $-1 $41 $-1 $17 #
shell $-1 -1 $-1 $-1 $-1 $42 $-1 $18 #
shell $-1 -1 $-1 $-1 $-1 $43 $-1 $19 #
shell $-1 -1 $-1 $-1 $-1 $44 $-1 $20 #
shell $-1 -1 $-1 $-1 $-1 $45 $-1 $21 #
shell $-1 -1 $-1 $-1 $-1 $46 $-1 $22 #
shell $-1 -1 $-1 $-1 $-1 $47 $-1 $23 #
face $-1 -1 $-1 $-1 $48 $24 $-1 $49 forward double out #
face $-1 -1 $-1 $-1 $50 $25 $-1 $51 forward double out #
face $-1 -1 $-1 $-1 $52 $26 $-1 $53 forward double out #
face $-1 -1 $-1 $-1 $54 $27 $-1 $55 forward double out #
face $-1 -1 $-1 $-1 $56 $28 $-1 $57 forward double out #
face $-1 -1 $-1 $-1 $58 $29 $-1 $59 forward double out #
face $-1 -1 $-1 $-1 $60 $30 $-1 $61 forward double out #
face $-1 -1 $-1 $-1 $62 $31 $-1 $63 forward double out #
face $-1 -1 $-1 $-1 $64 $32 $-1 $65 forward double out #
face $-1 -1 $-1 $-1 $66 $33 $-1 $67 forward double out #
face $-1 -1 $-1 $-1 $68 $34 $-1 $69 forward double out #
face $-1 -1 $-1 $-1 $70 $35 $-1 $71 forward double out #
loop $-1 -1 $-1 $72 $73 $36 #
plane-surface $-1 -1 $-1 142.69725568423337 204.71691869784425 44.0290623254932 0.99092967442785596 0.10198073295221978 -0.087511773178422764 -0.087970418027777594 0 -0.99612308755094015 forward_v I I I I #
loop $-1 -1 $-1 $74 $75 $37 #
plane-surface $-1 -1 $-1 137.73719717011696 207.44792117980055 44.081740189968372 -0.040281240093057669 0.9647899699131669 -0.25991870969885184 -0 0.26012983588970978 0.96557364736201912 forward_v I I I I #
loop $-1 -1 $-1 $76 $77 $38 #
plane-surface $-1 -1 $-1 142.2605214249821 211.08043110695496 42.387450967167219 0.99839542939695747 0.010560120807001834 -0.055633177221929238 -0.055636279480304182 0 -0.99845110266131187 forward_v I I I I #
loop $-1 -1 $-1 $78 $79 $39 #
plane-surface $-1 -1 $-1 137.7990322295401 214.61965146703352 42.13615148921869 0.0345193414450152 0.99343632952971095 0.10905353839623008 0 -0.10911856979649727 0.99402874089513482 forward_v I I I I #
loop $-1 -1 $-1 $80 $81 $40 #
plane-surface $-1 -1 $-1 142.09719950502551 218.08353207346391 43.395286136388584 0.99886919894760617 0.035392839692994241 -0.031743822898852851 -0.031763723596413045 0 -0.99949540562390327 forward_v I I I I #
loop $-1 -1 $-1 $82 $83 $41 #
plane-surface $-1 -1 $-1 151.18372152376554 204.51287480787977 44.455502631625023 0.99773033414686252 0.058749940119452421 -0.03290326517461422 -0.032960196315168187 0 -0.99945666512303855 forward_v I I I I #
loop $-1 -1 $-1 $84 $85 $42 #
plane-surface $-1 -1 $-1 146.63717428344256 207.26794466398803 43.574145623470059 0.048885622682469425 0.96971517429795395 -0.23929621106744686 -0 0.23958266012142665 0.97087596992053571 forward_v I I I I #
loop $-1 -1 $-1 $86 $87 $43 #
plane-surface $-1 -1 $-1 151.06025263115035 211.0265734071302 42.871747566784343 0.99984396008535514 -0.015662211986711135 -0.0081701038254247665 -0.0081711060930112628 0 -0.99996661595536118 forward_v I I I I #
loop $-1 -1 $-1 $88 $89 $44 #
plane-surface $-1 -1 $-1 146.60008721935174 214.64406484739283 41.698650303163724 -0.030550831768682431 0.99207271686825949 0.12189491836771527 0 -0.12195184373290711 0.99253601839436767 forward_v I I I I #
loop $-1 -1 $-1 $90 $91 $45 #
plane-surface $-1 -1 $-1 151.05848438785432 218.13050526072067 43.78231525170834 0.99986223928382734 0.016448445359636282 -0.00222510664497249 -0.0022254077088724308 0 -0.99999752377719875 forward_v I I I I #
loop $-1 -1 $-1 $92 $93 $46 #
plane-surface $-1 -1 $-1 155.55980717792986 207.54426375406047 43.358029269029586 -0.11672193938790473 0.96710610098662864 -0.22601278348794138 -0 0.22756829623886587 0.97376212215660751 forward_v I I I I #
loop $-1 -1 $-1 $94 $95 $47 #
plane-surface $-1 -1 $-1 155.56089763764132 214.68301727575167 41.614603807565864 0.024298977639166924 0.99162600772716469 0.12683619548368796 0 -0.12687365667501618 0.99191888541448292 forward_v I I I I #
loop $-1 -1 $-1 $-1 $96 $36 #
coedge $-1 -1 $-1 $73 $73 $-1 $97 forward $48 $-1 #
loop $-1 -1 $-1 $-1 $98 $37 #
coedge $-1 -1 $-1 $75 $75 $-1 $99 forward $50 $-1 #
loop $-1 -1 $-1 $-1 $100 $38 #
coedge $-1 -1 $-1 $77 $77 $-1 $101 forward $52 $-1 #
loop $-1 -1 $-1 $-1 $102 $39 #
coedge $-1 -1 $-1 $79 $79 $-1 $103 forward $54 $-1 #
loop $-1 -1 $-1 $-1 $104 $40 #
coedge $-1 -1 $-1 $81 $81 $-1 $105 forward $56 $-1 #
loop $-1 -1 $-1 $-1 $106 $41 #
coedge $-1 -1 $-1 $83 $83 $-1 $107 forward $58 $-1 #
loop $-1 -1 $-1 $-1 $108 $42 #
coedge $-1 -1 $-1 $85 $85 $-1 $109 forward $60 $-1 #
loop $-1 -1 $-1 $-1 $110 $43 #
coedge $-1 -1 $-1 $87 $87 $-1 $111 forward $62 $-1 #
loop $-1 -1 $-1 $-1 $112 $44 #
coedge $-1 -1 $-1 $89 $89 $-1 $113 forward $64 $-1 #
loop $-1 -1 $-1 $-1 $114 $45 #
coedge $-1 -1 $-1 $91 $91 $-1 $115 forward $66 $-1 #
loop $-1 -1 $-1 $-1 $116 $46 #
coedge $-1 -1 $-1 $93 $93 $-1 $117 forward $68 $-1 #
loop $-1 -1 $-1 $-1 $118 $47 #
coedge $-1 -1 $-1 $95 $95 $-1 $119 forward $70 $-1 #
coedge $-1 -1 $-1 $120 $121 $-1 $122 forward $72 $-1 #
edge $-1 -1 $-1 $123 -3.1415926535898002 $123 3.141592653589786 $73 $124 forward @7 unknown #
coedge $-1 -1 $-1 $125 $126 $-1 $127 forward $74 $-1 #
edge $-1 -1 $-1 $128 -3.1415926535897976 $128 3.1415926535897887 $75 $129 forward @7 unknown #
coedge $-1 -1 $-1 $130 $131 $-1 $132 forward $76 $-1 #
edge $-1 -1 $-1 $133 -3.1415926535897909 $133 3.1415926535897953 $77 $134 forward @7 unknown #
coedge $-1 -1 $-1 $135 $136 $-1 $137 forward $78 $-1 #
edge $-1 -1 $-1 $138 -3.1415926535897785 $138 3.1415926535898078 $79 $139 forward @7 unknown #
coedge $-1 -1 $-1 $140 $141 $-1 $142 forward $80 $-1 #
edge $-1 -1 $-1 $143 -3.1415926535897873 $143 3.1415926535897989 $81 $144 forward @7 unknown #
coedge $-1 -1 $-1 $145 $146 $-1 $147 forward $82 $-1 #
edge $-1 -1 $-1 $148 -3.1415926535898056 $148 3.1415926535897807 $83 $149 forward @7 unknown #
coedge $-1 -1 $-1 $150 $151 $-1 $152 forward $84 $-1 #
edge $-1 -1 $-1 $153 -3.1415926535898047 $153 3.1415926535897816 $85 $154 forward @7 unknown #
coedge $-1 -1 $-1 $155 $156 $-1 $157 forward $86 $-1 #
edge $-1 -1 $-1 $158 -3.1415926535897976 $158 3.1415926535897887 $87 $159 forward @7 unknown #
coedge $-1 -1 $-1 $160 $161 $-1 $162 forward $88 $-1 #
edge $-1 -1 $-1 $163 -3.1415926535898042 $163 3.141592653589782 $89 $164 forward @7 unknown #
coedge $-1 -1 $-1 $165 $166 $-1 $167 forward $90 $-1 #
edge $-1 -1 $-1 $168 -3.1415926535897927 $168 3.1415926535897936 $91 $169 forward @7 unknown #
coedge $-1 -1 $-1 $170 $171 $-1 $172 forward $92 $-1 #
edge $-1 -1 $-1 $173 -3.1415926535898295 $173 3.1415926535897567 $93 $174 forward @7 unknown #
coedge $-1 -1 $-1 $175 $176 $-1 $177 forward $94 $-1 #
edge $-1 -1 $-1 $178 -3.1415926535897998 $178 3.1415926535897865 $95 $179 forward @7 unknown #
coedge $-1 -1 $-1 $180 $96 $-1 $181 forward $72 $-1 #
coedge $-1 -1 $-1 $96 $182 $-1 $183 forward $72 $-1 #
edge $-1 -1 $-1 $184 0 $185 4.6571903783326398 $96 $186 forward @7 unknown #
vertex $-1 -1 $-1 $97 $187 #
ellipse-curve $-1 -1 $-1 142.73455524759518 204.88179011298408 44.643550525013737 -0.99092967442785596 -0.10198073295221978 0.087511773178422764 0.0029320540328658272 -0 0.033200782508072832 1 I I #
coedge $-1 -1 $-1 $188 $98 $-1 $189 forward $74 $-1 #
coedge $-1 -1 $-1 $98 $190 $-1 $191 forward $74 $-1 #
edge $-1 -1 $-1 $192 0 $193 8.4648914725560882 $98 $194 forward @7 unknown #
vertex $-1 -1 $-1 $99 $195 #
ellipse-curve $-1 -1 $-1 137.83617914866153 207.61435957353365 44.684201537290981 0.040281240093057669 -0.9647899699131669 0.25991870969885184 0 -0.0086701274302040266 -0.032182569666576094 1 I I #
coedge $-1 -1 $-1 $196 $100 $-1 $197 forward $76 $-1 #
coedge $-1 -1 $-1 $100 $198 $-1 $199 forward $76 $-1 #
edge $-1 -1 $-1 $200 0 $201 6.5416291788777183 $100 $202 forward @7 unknown #
vertex $-1 -1 $-1 $101 $203 #
ellipse-curve $-1 -1 $-1 142.29306205172699 211.2380899956718 43.001352808270383 -0.99839542939695747 -0.010560120807001834 0.055633177221929238 0.001854357195078538 -0 0.03327837525170152 1 I I #
coedge $-1 -1 $-1 $204 $102 $-1 $205 forward $78 $-1 #
coedge $-1 -1 $-1 $102 $206 $-1 $207 forward $78 $-1 #
edge $-1 -1 $-1 $208 0 $209 7.9494949203222927 $102 $210 forward @7 unknown #
vertex $-1 -1 $-1 $103 $211 #
ellipse-curve $-1 -1 $-1 137.89360072045883 214.54808133590794 42.758193903788701 -0.0345193414450152 -0.99343632952971095 -0.10905353839623008 0 0.0036369219313172542 -0.033130977934034841 1 I I #
coedge $-1 -1 $-1 $212 $104 $-1 $213 forward $80 $-1 #
coedge $-1 -1 $-1 $104 $214 $-1 $215 forward $80 $-1 #
edge $-1 -1 $-1 $216 0 $217 7.4593767428533262 $104 $218 forward @7 unknown #
vertex $-1 -1 $-1 $105 $219 #
ellipse-curve $-1 -1 $-1 142.12549518790522 217.78626346861938 43.954213965315731 -0.99886919894760617 -0.035392839692994241 0.031743822898852851 0.001058684907468447 -0 0.033313181869444694 1 I I #
coedge $-1 -1 $-1 $220 $106 $-1 $221 forward $82 $-1 #
coedge $-1 -1 $-1 $106 $222 $-1 $223 forward $82 $-1 #
edge $-1 -1 $-1 $224 0 $225 4.357414596638975 $106 $226 forward @7 unknown #
vertex $-1 -1 $-1 $107 $227 #
ellipse-curve $-1 -1 $-1 151.19507681747481 204.66666274809432 45.074424588383046 -0.99773033414686252 -0.058749940119452421 0.03290326517461422 0.0010985633431845555 -0 0.03331189064855087 1 I I #
coedge $-1 -1 $-1 $228 $108 $-1 $229 forward $84 $-1 #
coedge $-1 -1 $-1 $108 $230 $-1 $231 forward $84 $-1 #
edge $-1 -1 $-1 $232 0 $233 7.696330630875285 $108 $234 forward @7 unknown #
vertex $-1 -1 $-1 $109 $235 #
ellipse-curve $-1 -1 $-1 146.60723815452764 207.42096647527731 44.188129962994985 -0.048885622682469425 -0.96971517429795395 0.23929621106744686 0 -0.0079852900618471497 -0.032359296077451451 1 I I #
coedge $-1 -1 $-1 $236 $110 $-1 $237 forward $86 $-1 #
coedge $-1 -1 $-1 $110 $238 $-1 $239 forward $86 $-1 #
edge $-1 -1 $-1 $240 0 $241 7.0655452057636126 $110 $242 forward @7 unknown #
vertex $-1 -1 $-1 $111 $243 #
ellipse-curve $-1 -1 $-1 151.06764327265742 211.17708567591592 43.487667917272034 -0.99984396008535514 0.015662211986711135 0.0081701038254247665 0.00027234296608006535 -0 0.033328887309792186 1 I I #
coedge $-1 -1 $-1 $244 $112 $-1 $245 forward $88 $-1 #
coedge $-1 -1 $-1 $112 $246 $-1 $247 forward $88 $-1 #
edge $-1 -1 $-1 $248 0 $249 7.9798728992668355 $112 $250 forward @7 unknown #
vertex $-1 -1 $-1 $113 $251 #
ellipse-curve $-1 -1 $-1 146.57059822872174 214.56603162827105 42.326352553043662 0.030550831768682431 -0.99207271686825949 -0.12189491836771527 0 0.0040646549516177941 -0.033081225493084274 1 I I #
coedge $-1 -1 $-1 $252 $114 $-1 $253 forward $90 $-1 #
coedge $-1 -1 $-1 $114 $254 $-1 $255 forward $90 $-1 #
edge $-1 -1 $-1 $256 0 $257 7.0849375987428749 $114 $258 forward @7 unknown #
vertex $-1 -1 $-1 $115 $259 #
ellipse-curve $-1 -1 $-1 151.06465253083832 217.83116883974222 44.341243289787414 -0.99986223928382734 -0.016448445359636282 0.00222510664497249 7.4172838936718117e-005 -0 0.03332991746749403 1 I I #
coedge $-1 -1 $-1 $260 $116 $-1 $261 forward $92 $-1 #
coedge $-1 -1 $-1 $116 $262 $-1 $263 forward $92 $-1 #
edge $-1 -1 $-1 $264 0 $265 8.1266799830910799 $116 $266 forward @7 unknown #
vertex $-1 -1 $-1 $117 $267 #
ellipse-curve $-1 -1 $-1 155.60829626830983 207.69345626889918 43.971380640197246 0.11672193938790473 -0.96710610098662864 0.22601278348794138 0 -0.0075848513136413994 -0.032455491531479724 1 I I #
coedge $-1 -1 $-1 $268 $118 $-1 $269 forward $94 $-1 #
coedge $-1 -1 $-1 $118 $270 $-1 $271 forward $94 $-1 #
edge $-1 -1 $-1 $272 0 $273 7.8561580606682977 $118 $274 forward @7 unknown #
vertex $-1 -1 $-1 $119 $275 #
ellipse-curve $-1 -1 $-1 155.60498151415015 214.60179661166862 42.2411546863353 -0.024298977639166924 -0.99162600772716469 -0.12683619548368796 0 0.0042286989769782886 -0.033060656450864707 1 I I #
coedge $-1 -1 $-1 $182 $120 $-1 $276 forward $72 $-1 #
edge $-1 -1 $-1 $185 0 $277 1.0820000000000061 $120 $278 forward @7 unknown #
coedge $-1 -1 $-1 $121 $180 $-1 $279 forward $72 $-1 #
edge $-1 -1 $-1 $280 -0 $184 1.0820000000000061 $121 $281 forward @7 unknown #
vertex $-1 -1 $-1 $122 $282 #
vertex $-1 -1 $-1 $122 $283 #
straight-curve $-1 -1 $-1 142.94327178544222 202.3223854927943 44.024359001133661 -0.12100716102237057 0.96038321225067458 -0.25104053977073465 F 0 F 4.6571903783326398 #
point $-1 -1 $-1 142.73162319356231 204.88179011298408 44.610349742505662 #
coedge $-1 -1 $-1 $190 $125 $-1 $284 forward $74 $-1 #
edge $-1 -1 $-1 $193 0 $285 1.0819999999999965 $125 $286 forward @7 unknown #
coedge $-1 -1 $-1 $126 $188 $-1 $287 forward $74 $-1 #
edge $-1 -1 $-1 $288 -0 $192 1.0819999999999965 $126 $289 forward @7 unknown #
vertex $-1 -1 $-1 $127 $290 #
vertex $-1 -1 $-1 $127 $291 #
straight-curve $-1 -1 $-1 141.81766377087266 207.27608208454251 42.811516546725471 -0.98684907157601209 0.00234091552427706 0.16162744211324739 F 0 F 8.4648914725560882 #
point $-1 -1 $-1 137.83617914866153 207.62302970096385 44.716384106957555 #
coedge $-1 -1 $-1 $198 $130 $-1 $292 forward $76 $-1 #
edge $-1 -1 $-1 $201 0 $293 1.0820000000000007 $130 $294 forward @7 unknown #
coedge $-1 -1 $-1 $131 $196 $-1 $295 forward $76 $-1 #
edge $-1 -1 $-1 $296 -0 $200 1.0820000000000007 $131 $297 forward @7 unknown #
vertex $-1 -1 $-1 $132 $298 #
vertex $-1 -1 $-1 $132 $299 #
straight-curve $-1 -1 $-1 142.3077809959608 207.76032858295355 42.605361511210695 -0.024070702897973448 0.96842228831760624 -0.24815090721512301 F 0 F 6.5416291788777183 #
point $-1 -1 $-1 142.29120769453192 211.2380899956718 42.968074433018678 #
coedge $-1 -1 $-1 $206 $135 $-1 $300 forward $78 $-1 #
edge $-1 -1 $-1 $209 0 $301 1.0819999999999987 $135 $302 forward @7 unknown #
coedge $-1 -1 $-1 $136 $204 $-1 $303 forward $78 $-1 #
edge $-1 -1 $-1 $304 0 $208 1.0819999999999987 $136 $305 forward @7 unknown #
vertex $-1 -1 $-1 $137 $306 #
vertex $-1 -1 $-1 $137 $307 #
straight-curve $-1 -1 $-1 141.63595845258098 214.61849606739673 40.932152496163198 -0.98839613267312554 0.017784398752079079 0.15085357164428118 F 0 F 7.9494949203222927 #
point $-1 -1 $-1 137.89360072045883 214.54444441397663 42.791324881722737 #
coedge $-1 -1 $-1 $214 $140 $-1 $308 forward $80 $-1 #
edge $-1 -1 $-1 $217 0 $309 1.0820000000000003 $140 $310 forward @7 unknown #
coedge $-1 -1 $-1 $141 $212 $-1 $311 forward $80 $-1 #
edge $-1 -1 $-1 $312 0 $216 1.0820000000000003 $141 $313 forward @7 unknown #
vertex $-1 -1 $-1 $142 $314 #
vertex $-1 -1 $-1 $142 $315 #
straight-curve $-1 -1 $-1 142.13066667555253 215.08041498373845 41.100051685492559 -0.016333536913806054 0.88251466665437817 0.47000114756434069 F 0 F 7.4593767428533262 #
point $-1 -1 $-1 142.12443650299775 217.78626346861938 43.920900783446285 #
coedge $-1 -1 $-1 $222 $145 $-1 $316 forward $82 $-1 #
edge $-1 -1 $-1 $225 0 $317 1.0820000000000014 $145 $318 forward @7 unknown #
coedge $-1 -1 $-1 $146 $220 $-1 $319 forward $82 $-1 #
edge $-1 -1 $-1 $320 -0 $224 1.0820000000000014 $146 $321 forward @7 unknown #
vertex $-1 -1 $-1 $147 $322 #
vertex $-1 -1 $-1 $147 $323 #
straight-curve $-1 -1 $-1 151.31423983933811 202.25423658263904 44.38034966845332 -0.064903297815052524 0.96921643991797291 -0.23750169373177304 F 0 F 4.357414596638975 #
point $-1 -1 $-1 151.19397825413162 204.66666274809432 45.041112697734498 #
coedge $-1 -1 $-1 $230 $150 $-1 $324 forward $84 $-1 #
edge $-1 -1 $-1 $233 0 $325 1.082000000000003 $150 $326 forward @7 unknown #
coedge $-1 -1 $-1 $151 $228 $-1 $327 forward $84 $-1 #
edge $-1 -1 $-1 $328 0 $232 1.082000000000003 $151 $329 forward @7 unknown #
vertex $-1 -1 $-1 $152 $330 #
vertex $-1 -1 $-1 $152 $331 #
straight-curve $-1 -1 $-1 150.50552170959909 206.98015898264313 43.198194959375975 -0.9977063661339014 0.03617878050927744 -0.057211037543003211 F 0 F 7.696330630875285 #
point $-1 -1 $-1 146.60723815452764 207.42895176533915 44.220489259072437 #
coedge $-1 -1 $-1 $238 $155 $-1 $332 forward $86 $-1 #
edge $-1 -1 $-1 $241 0 $333 1.0819999999999947 $155 $334 forward @7 unknown #
coedge $-1 -1 $-1 $156 $236 $-1 $335 forward $86 $-1 #
edge $-1 -1 $-1 $336 -0 $240 1.0819999999999947 $156 $337 forward @7 unknown #
vertex $-1 -1 $-1 $157 $338 #
vertex $-1 -1 $-1 $157 $339 #
straight-curve $-1 -1 $-1 151.00613519562057 207.44826129006086 43.108622387933551 0.013292317216877314 0.97166232603086944 -0.23599923405656728 F 0 F 7.0655452057636126 #
point $-1 -1 $-1 151.06737092969135 211.17708567591592 43.454339029962242 #
coedge $-1 -1 $-1 $246 $160 $-1 $340 forward $88 $-1 #
edge $-1 -1 $-1 $249 0 $341 1.0820000000000038 $160 $342 forward @7 unknown #
coedge $-1 -1 $-1 $161 $244 $-1 $343 forward $88 $-1 #
edge $-1 -1 $-1 $344 0 $248 1.0820000000000038 $161 $345 forward @7 unknown #
vertex $-1 -1 $-1 $162 $346 #
vertex $-1 -1 $-1 $162 $347 #
straight-curve $-1 -1 $-1 150.6123686301606 214.81714665371456 41.295588353529276 -0.9983578424473043 -0.024374731537134174 -0.051841015484422825 F 0 F 7.9798728992668355 #
point $-1 -1 $-1 146.57059822872174 214.56196697331944 42.359433778536747 #
coedge $-1 -1 $-1 $254 $165 $-1 $348 forward $90 $-1 #
edge $-1 -1 $-1 $257 0 $349 1.0820000000000067 $165 $350 forward @7 unknown #
coedge $-1 -1 $-1 $166 $252 $-1 $351 forward $90 $-1 #
edge $-1 -1 $-1 $352 0 $256 1.0820000000000067 $166 $353 forward @7 unknown #
vertex $-1 -1 $-1 $167 $354 #
vertex $-1 -1 $-1 $167 $355 #
straight-curve $-1 -1 $-1 151.10013597919698 215.2989037058021 41.566875341047265 -0.01344524531362983 0.88122439827674404 0.47250691556870011 F 0 F 7.0849375987428749 #
point $-1 -1 $-1 151.06457835799938 217.83116883974222 44.307913372319923 #
coedge $-1 -1 $-1 $262 $170 $-1 $356 forward $92 $-1 #
edge $-1 -1 $-1 $265 0 $357 1.0819999999999996 $170 $358 forward @7 unknown #
coedge $-1 -1 $-1 $171 $260 $-1 $359 forward $92 $-1 #
edge $-1 -1 $-1 $360 -0 $264 1.0819999999999996 $171 $361 forward @7 unknown #
vertex $-1 -1 $-1 $172 $362 #
vertex $-1 -1 $-1 $172 $363 #
straight-curve $-1 -1 $-1 159.53607310886727 207.78806643970029 42.347757182919764 -0.99018124226997506 -0.095692341785127658 0.10190232176141716 F 0 F 8.1266799830910799 #
point $-1 -1 $-1 155.60829626830983 207.70104112021284 44.003836131728725 #
coedge $-1 -1 $-1 $270 $175 $-1 $364 forward $94 $-1 #
edge $-1 -1 $-1 $273 0 $365 1.081999999999997 $175 $366 forward @7 unknown #
coedge $-1 -1 $-1 $176 $268 $-1 $367 forward $94 $-1 #
edge $-1 -1 $-1 $368 0 $272 1.081999999999997 $176 $369 forward @7 unknown #
vertex $-1 -1 $-1 $177 $370 #
vertex $-1 -1 $-1 $177 $371 #
straight-curve $-1 -1 $-1 159.43581169759852 214.70172591485124 40.725989774583141 -0.99733819800943591 0.015320864855966449 0.071286674009638409 F 0 F 7.8561580606682977 #
point $-1 -1 $-1 155.60498151415015 214.59756791269163 42.274215342786164 #
edge $-1 -1 $-1 $277 0 $372 2.3524887734709918 $180 $373 forward @7 unknown #
vertex $-1 -1 $-1 $181 $374 #
straight-curve $-1 -1 $-1 142.37971839941949 206.79507294840033 42.855215414741963 0.058518346146853521 0.25875922497938209 0.96416765484655542 F 0 F 1.0820000000000061 #
edge $-1 -1 $-1 $372 0 $280 2.3520811382071849 $182 $375 forward @7 unknown #
vertex $-1 -1 $-1 $279 $376 #
straight-curve $-1 -1 $-1 143.00658863597312 202.60236297422199 45.06758840367764 -0.058518346146853521 -0.25875922497938209 -0.96416765484655542 F 0 F 1.0820000000000061 #
point $-1 -1 $-1 142.94327178544222 202.3223854927943 44.024359001133661 #
point $-1 -1 $-1 142.37971839941949 206.79507294840033 42.855215414741963 #
edge $-1 -1 $-1 $285 0 $377 4.2454860905556275 $188 $378 forward @7 unknown #
vertex $-1 -1 $-1 $189 $379 #
straight-curve $-1 -1 $-1 133.46409348018898 207.29589768040194 44.179675303200952 0.15642813226328903 0.26301136648895596 0.95202692216881724 F 0 F 1.0819999999999965 #
edge $-1 -1 $-1 $377 0 $288 4.2455647063700583 $190 $380 forward @7 unknown #
vertex $-1 -1 $-1 $287 $381 #
straight-curve $-1 -1 $-1 141.98691900998153 207.56066038308356 43.841609676512128 -0.15642813226328903 -0.26301136648895596 -0.95202692216881724 F 0 F 1.0819999999999965 #
point $-1 -1 $-1 141.81766377087266 207.27608208454251 42.811516546725471 #
point $-1 -1 $-1 133.46409348018898 207.29589768040194 44.179675303200952 #
edge $-1 -1 $-1 $293 0 $382 3.2879302588552224 $196 $383 forward @7 unknown #
vertex $-1 -1 $-1 $197 $384 #
straight-curve $-1 -1 $-1 142.15031938352732 214.09538808168753 40.982050295807269 0.05127101480412348 0.24848351089407836 0.9672782577183815 F 0 F 1.0820000000000007 #
edge $-1 -1 $-1 $382 0 $296 3.2875140714339794 $198 $385 forward @7 unknown #
vertex $-1 -1 $-1 $295 $386 #
straight-curve $-1 -1 $-1 142.36325623397886 208.02918774174094 43.651956586061985 -0.05127101480412348 -0.24848351089407836 -0.9672782577183815 F 0 F 1.0820000000000007 #
point $-1 -1 $-1 142.3077809959608 207.76032858295355 42.605361511210695 #
point $-1 -1 $-1 142.15031938352732 214.09538808168753 40.982050295807269 #
edge $-1 -1 $-1 $301 0 $387 3.9890982846399705 $204 $388 forward @7 unknown #
vertex $-1 -1 $-1 $205 $389 #
straight-curve $-1 -1 $-1 133.77870841662977 214.75987305493737 42.131362197661886 0.14919286011490962 -0.11301820204977656 0.98232803914790556 F 0 F 1.0819999999999987 #
edge $-1 -1 $-1 $387 0 $304 3.9882461834241636 $206 $390 forward @7 unknown #
vertex $-1 -1 $-1 $303 $391 #
straight-curve $-1 -1 $-1 141.79738512722531 214.49621037277888 41.995031434521231 -0.14919286011490962 0.11301820204977656 -0.98232803914790556 F 0 F 1.0819999999999987 #
point $-1 -1 $-1 141.63595845258098 214.61849606739673 40.932152496163198 #
point $-1 -1 $-1 133.77870841662977 214.75987305493737 42.131362197661886 #
edge $-1 -1 $-1 $309 0 $392 3.7445759565769783 $212 $393 forward @7 unknown #
vertex $-1 -1 $-1 $213 $394 #
straight-curve $-1 -1 $-1 142.00882867016915 221.66342436340707 44.605967314748376 0.044651593948247102 -0.46908786940599295 0.88202199855447316 F 0 F 1.0820000000000003 #
edge $-1 -1 $-1 $392 0 $312 3.7444732074533746 $214 $395 forward @7 unknown #
vertex $-1 -1 $-1 $311 $396 #
straight-curve $-1 -1 $-1 142.17897970020454 214.57286190904117 42.054399487928499 -0.044651593948247102 0.46908786940599295 -0.88202199855447316 F 0 F 1.0820000000000003 #
point $-1 -1 $-1 142.13066667555253 215.08041498373845 41.100051685492559 #
point $-1 -1 $-1 142.00882867016915 221.66342436340707 44.605967314748376 #
edge $-1 -1 $-1 $317 0 $397 2.2033901282592891 $220 $398 forward @7 unknown #
vertex $-1 -1 $-1 $221 $399 #
straight-curve $-1 -1 $-1 151.0314292620688 206.47751444524008 43.345456321460013 0.017815191647085726 0.24091888999181901 0.97038173282048512 F 0 F 1.0820000000000014 #
edge $-1 -1 $-1 $397 0 $320 2.2046271626265308 $222 $400 forward @7 unknown #
vertex $-1 -1 $-1 $319 $401 #
straight-curve $-1 -1 $-1 151.33351587670026 202.51491082161019 45.430302703365086 -0.017815191647085726 -0.24091888999181901 -0.97038173282048512 F 0 F 1.0820000000000014 #
point $-1 -1 $-1 151.31423983933811 202.25423658263904 44.38034966845332 #
point $-1 -1 $-1 151.0314292620688 206.47751444524008 43.345456321460013 #
edge $-1 -1 $-1 $325 0 $402 3.8624163564144167 $228 $403 forward @7 unknown #
vertex $-1 -1 $-1 $229 $404 #
straight-curve $-1 -1 $-1 142.82684364330348 207.2586028392644 42.757879898709604 -0.047212272265642237 0.24155832144454542 0.96923711169579585 F 0 F 1.082000000000003 #
edge $-1 -1 $-1 $402 0 $328 3.8626765952609796 $230 $405 forward @7 unknown #
vertex $-1 -1 $-1 $327 $406 #
straight-curve $-1 -1 $-1 150.45443803100767 207.24152508644613 44.246909514230829 0.047212272265642237 -0.24155832144454542 -0.96923711169579585 F 0 F 1.082000000000003 #
point $-1 -1 $-1 150.50552170959909 206.98015898264313 43.198194959375975 #
point $-1 -1 $-1 142.82684364330348 207.2586028392644 42.757879898709604 #
edge $-1 -1 $-1 $333 0 $407 3.5479678398003496 $236 $408 forward @7 unknown #
vertex $-1 -1 $-1 $237 $409 #
straight-curve $-1 -1 $-1 151.10005266380577 214.31358537936939 41.441159131181287 0.011653458505579471 0.23721453039711737 0.97138739104094507 F 0 F 1.0819999999999947 #
edge $-1 -1 $-1 $407 0 $336 3.5488965517590163 $238 $410 forward @7 unknown #
vertex $-1 -1 $-1 $335 $411 #
straight-curve $-1 -1 $-1 151.01874423772361 207.70492741195054 44.159663545039848 -0.011653458505579471 -0.23721453039711737 -0.97138739104094507 F 0 F 1.0819999999999947 #
point $-1 -1 $-1 151.00613519562057 207.44826129006086 43.108622387933551 #
point $-1 -1 $-1 151.10005266380577 214.31358537936939 41.441159131181287 #
edge $-1 -1 $-1 $341 0 $412 4.0043714099588499 $244 $413 forward @7 unknown #
vertex $-1 -1 $-1 $245 $414 #
straight-curve $-1 -1 $-1 142.64559993944485 214.62263939409448 40.881903638994658 -0.046764962820189625 -0.12323700090785192 0.99127477515553897 F 0 F 1.0820000000000038 #
edge $-1 -1 $-1 $412 0 $344 4.0032453528769425 $246 $415 forward @7 unknown #
vertex $-1 -1 $-1 $343 $416 #
straight-curve $-1 -1 $-1 150.56176894038916 214.68380421873226 42.368147660247573 0.046764962820189625 0.12323700090785192 -0.99127477515553897 F 0 F 1.0820000000000038 #
point $-1 -1 $-1 150.6123686301606 214.81714665371456 41.295588353529276 #
point $-1 -1 $-1 142.64559993944485 214.62263939409448 40.881903638994658 #
edge $-1 -1 $-1 $349 0 $417 3.5579768331053416 $252 $418 forward @7 unknown #
vertex $-1 -1 $-1 $253 $419 #
straight-curve $-1 -1 $-1 151.00487725515012 221.54232357808257 44.914557352825973 0.0097284050178456302 -0.47212238862644557 0.88147932947600549 F 0 F 1.0820000000000067 #
edge $-1 -1 $-1 $417 0 $352 3.5581946607972283 $254 $420 forward @7 unknown #
vertex $-1 -1 $-1 $351 $421 #
straight-curve $-1 -1 $-1 151.11066211342629 214.78806728130829 42.520635975540308 -0.0097284050178456302 0.47212238862644557 -0.88147932947600549 F 0 F 1.0820000000000067 #
point $-1 -1 $-1 151.10013597919698 215.2989037058021 41.566875341047265 #
point $-1 -1 $-1 151.00487725515012 221.54232357808257 44.914557352825973 #
edge $-1 -1 $-1 $357 0 $422 4.0768624121057391 $260 $423 forward @7 unknown #
vertex $-1 -1 $-1 $261 $424 #
straight-curve $-1 -1 $-1 151.48918702767961 207.01040540117998 43.17588474140878 0.076624909921019418 0.23565906965079311 0.96881031480415092 F 0 F 1.0819999999999996 #
edge $-1 -1 $-1 $422 0 $360 4.0770620116139984 $262 $425 forward @7 unknown #
vertex $-1 -1 $-1 $359 $426 #
straight-curve $-1 -1 $-1 159.61898126140181 208.04304955306245 43.396009943537855 -0.076624909921019418 -0.23565906965079311 -0.96881031480415092 F 0 F 1.0819999999999996 #
point $-1 -1 $-1 159.53607310886727 207.78806643970029 42.347757182919764 #
point $-1 -1 $-1 151.48918702767961 207.01040540117998 43.17588474140878 #
edge $-1 -1 $-1 $365 0 $427 3.9424253169814443 $268 $428 forward @7 unknown #
vertex $-1 -1 $-1 $269 $429 #
straight-curve $-1 -1 $-1 151.6005651740943 214.82208905078585 41.286029153222195 0.069517884103916211 -0.12824258802559624 0.98930334195645564 F 0 F 1.081999999999997 #
edge $-1 -1 $-1 $427 0 $368 3.94191201793311 $270 $430 forward @7 unknown #
vertex $-1 -1 $-1 $367 $431 #
straight-curve $-1 -1 $-1 159.51103004819896 214.56296743460754 41.796415990580023 -0.069517884103916211 0.12824258802559624 -0.98930334195645564 F 0 F 1.081999999999997 #
point $-1 -1 $-1 159.43581169759852 214.70172591485124 40.725989774583141 #
point $-1 -1 $-1 151.6005651740943 214.82208905078585 41.286029153222195 #
vertex $-1 -1 $-1 $276 $432 #
straight-curve $-1 -1 $-1 142.44303524995038 207.07505042982802 43.898444817285942 0.12806152602113027 -0.91400092112337128 0.38497085829808991 F 0 F 2.3524887734709918 #
point $-1 -1 $-1 142.44303524995038 207.07505042982802 43.898444817285942 #
straight-curve $-1 -1 $-1 142.74429855222866 204.92487352394315 44.80408443954569 0.11151404578856683 -0.98742790458811902 0.11203013359173432 F 0 F 2.3520811382071849 #
point $-1 -1 $-1 143.00658863597312 202.60236297422199 45.06758840367764 #
vertex $-1 -1 $-1 $284 $433 #
straight-curve $-1 -1 $-1 133.63334871929786 207.58047597894299 45.209768432987609 0.99608752052984295 0.018295899563512501 -0.086457570541111722 F 0 F 4.2454860905556275 #
point $-1 -1 $-1 133.63334871929786 207.58047597894299 45.209768432987609 #
straight-curve $-1 -1 $-1 137.86222443268335 207.65815096605408 44.842714019832087 0.97153025865074716 -0.022962924772821618 -0.23580004370629398 F 0 F 4.2455647063700583 #
point $-1 -1 $-1 141.98691900998153 207.56066038308356 43.841609676512128 #
vertex $-1 -1 $-1 $292 $434 #
straight-curve $-1 -1 $-1 142.20579462154538 214.36424724047492 42.028645370658559 0.029138104097090802 -0.93821477263124942 0.34482460948447424 F 0 F 3.2879302588552224 #
point $-1 -1 $-1 142.20579462154538 214.36424724047492 42.028645370658559 #
straight-curve $-1 -1 $-1 142.30159867569188 211.27946250023567 43.162404638180497 0.018755070532697978 -0.98867250082278424 0.14891250265217881 F 0 F 3.2875140714339794 #
point $-1 -1 $-1 142.36325623397886 208.02918774174094 43.651956586061985 #
vertex $-1 -1 $-1 $300 $435 #
straight-curve $-1 -1 $-1 133.9401350912741 214.63758736031951 43.194241136019919 0.99729461560582178 -0.027154897504027706 -0.06830857358474042 F 0 F 3.989098284639971 #
point $-1 -1 $-1 133.9401350912741 214.63758736031951 43.194241136019919 #
straight-curve $-1 -1 $-1 137.91844133166796 214.52926380526662 42.921751522306828 0.97259387138108588 -0.0082877111812012412 -0.23236280940660206 F 0 F 3.9882461834241636 #
point $-1 -1 $-1 141.79738512722531 214.49621037277888 41.995031434521231 #
vertex $-1 -1 $-1 $308 $436 #
straight-curve $-1 -1 $-1 142.05714169482115 221.15587128870979 45.560315117184317 0.020239403434545188 -0.92072132875043977 -0.38969552388068074 F 0 F 3.7445759565769783 #
point $-1 -1 $-1 142.05714169482115 221.15587128870979 45.560315117184317 #
straight-curve $-1 -1 $-1 142.13292967829761 217.70816033836329 44.10107062807505 0.012298130966796392 -0.83731362347080163 -0.54658453319218603 F 0 F 3.7444732074533746 #
point $-1 -1 $-1 142.17897970020454 214.57286190904117 42.054399487928499 #
vertex $-1 -1 $-1 $316 $437 #
straight-curve $-1 -1 $-1 151.05070529943094 206.73818868421122 44.395409356371779 0.066868660961788395 -0.92194882553009205 0.38149566876291213 F 0 F 2.2033901282592896 #
point $-1 -1 $-1 151.05070529943094 206.73818868421122 44.395409356371779 #
straight-curve $-1 -1 $-1 151.19804304688407 204.70677574327797 45.235993146897655 0.061449315382105671 -0.99421115680007321 0.088137150698958056 F 0 F 2.2046271626265308 #
point $-1 -1 $-1 151.33351587670026 202.51491082161019 45.430302703365086 #
vertex $-1 -1 $-1 $324 $438 #
straight-curve $-1 -1 $-1 142.77575996471205 207.5199689430674 43.806594453564458 0.98995473135188483 -0.015219231135445566 0.14056317041694616 F 0 F 3.8624163564144167 #
point $-1 -1 $-1 142.77575996471205 207.5199689430674 43.806594453564458 #
straight-curve $-1 -1 $-1 146.59937731119541 207.4611859357978 44.349507942092337 0.99802834245609229 -0.056867522800424335 -0.026561485366749012 F 0 F 3.8626765952609796 #
point $-1 -1 $-1 150.45443803100767 207.24152508644613 44.246909514230829 #
vertex $-1 -1 $-1 $332 $439 #
straight-curve $-1 -1 $-1 151.11266170590881 214.57025150125907 42.492200288287584 -0.012141635537665897 -0.94523675451937883 0.32615956001954333 F 0 F 3.5479678398003496 #
point $-1 -1 $-1 151.11266170590881 214.57025150125907 42.492200288287584 #
straight-curve $-1 -1 $-1 151.06958357349859 211.21658189522705 43.649403917880356 -0.014325392423676708 -0.98950601463318455 0.14377979738704438 F 0 F 3.5488965517590167 #
point $-1 -1 $-1 151.01874423772361 207.70492741195054 44.159663545039848 #
vertex $-1 -1 $-1 $340 $440 #
straight-curve $-1 -1 $-1 142.5950002496734 214.48929695911218 41.954462945712955 0.99087002840716298 0.014038585024334548 0.13408767629764592 F 0 F 4.0043714099588499 #
point $-1 -1 $-1 142.5950002496734 214.48929695911218 41.954462945712955 #
straight-curve $-1 -1 $-1 146.56281186241216 214.5455126676199 42.491399803107065 0.99892880038020537 0.034544860212721247 -0.030788056188191585 F 0 F 4.0032453528769425 #
point $-1 -1 $-1 150.56176894038916 214.68380421873226 42.368147660247573 #
vertex $-1 -1 $-1 $348 $441 #
straight-curve $-1 -1 $-1 151.01540338937943 221.03148715358876 45.868317987319017 0.014297147868154057 -0.921570556908615 -0.38794754826133548 F 0 F 3.5579768331053416 #
point $-1 -1 $-1 151.01540338937943 221.03148715358876 45.868317987319017 #
straight-curve $-1 -1 $-1 151.0662723102738 217.75256046203592 44.488009598145169 0.012475372312131496 -0.83314530635134565 -0.55291343227524881 F 0 F 3.5581946607972283 #
point $-1 -1 $-1 151.11066211342629 214.78806728130829 42.520635975540308 #
vertex $-1 -1 $-1 $356 $442 #
straight-curve $-1 -1 $-1 151.57209518021415 207.26538851454214 44.224137502026871 0.9931556982582106 0.11462368415138927 -0.022431452222468302 F 0 F 4.0768624121057391 #
point $-1 -1 $-1 151.57209518021415 207.26538851454214 44.224137502026871 #
straight-curve $-1 -1 $-1 155.62105431581168 207.73269350399602 44.132687557612144 0.98059017356163924 0.076122474512857918 -0.18068835155702173 F 0 F 4.0770620116139993 #
point $-1 -1 $-1 159.61898126140181 208.04304955306245 43.396009943537855 #
vertex $-1 -1 $-1 $364 $443 #
straight-curve $-1 -1 $-1 151.67578352469474 214.68333057054215 42.356455369219077 0.99958081645437802 -0.026097222269919524 0.012535005631966193 F 0 F 3.9424253169814447 #
point $-1 -1 $-1 151.67578352469474 214.68333057054215 42.356455369219077 #
straight-curve $-1 -1 $-1 155.61655624185346 214.58044422076233 42.405873692771046 0.98796568483218417 -0.0044335809818382204 -0.15460966643050134 F 0 F 3.94191201793311 #
point $-1 -1 $-1 159.51103004819896 214.56296743460754 41.796415990580023 #
point $-1 -1 $-1 142.74429855222866 204.92487352394315 44.80408443954569 #
point $-1 -1 $-1 137.86222443268335 207.65815096605408 44.842714019832087 #
point $-1 -1 $-1 142.30159867569188 211.27946250023567 43.162404638180497 #
point $-1 -1 $-1 137.91844133166796 214.52926380526662 42.921751522306828 #
point $-1 -1 $-1 142.13292967829761 217.70816033836329 44.10107062807505 #
point $-1 -1 $-1 151.19804304688407 204.70677574327797 45.235993146897655 #
point $-1 -1 $-1 146.59937731119541 207.4611859357978 44.349507942092337 #
point $-1 -1 $-1 151.06958357349859 211.21658189522705 43.649403917880356 #
point $-1 -1 $-1 146.56281186241216 214.5455126676199 42.491399803107065 #
point $-1 -1 $-1 151.0662723102738 217.75256046203592 44.488009598145169 #
point $-1 -1 $-1 155.62105431581168 207.73269350399602 44.132687557612144 #
point $-1 -1 $-1 155.61655624185346 214.58044422076233 42.405873692771046 #
End-of-ACIS-data 