700 0 12 0           
4 LibG 19 ASM 219.0.0.5600 NT 24 Wed Aug 21 16:38:52 2013 
1 9.9999999999999995e-007 1e-010 
body $-1 -1 $-1 $12 $-1 $-1 #
body $-1 -1 $-1 $13 $-1 $-1 #
body $-1 -1 $-1 $14 $-1 $-1 #
body $-1 -1 $-1 $15 $-1 $-1 #
body $-1 -1 $-1 $16 $-1 $-1 #
body $-1 -1 $-1 $17 $-1 $-1 #
body $-1 -1 $-1 $18 $-1 $-1 #
body $-1 -1 $-1 $19 $-1 $-1 #
body $-1 -1 $-1 $20 $-1 $-1 #
body $-1 -1 $-1 $21 $-1 $-1 #
body $-1 -1 $-1 $22 $-1 $-1 #
body $-1 -1 $-1 $23 $-1 $-1 #
lump $-1 -1 $-1 $-1 $24 $0 #
lump $-1 -1 $-1 $-1 $25 $1 #
lump $-1 -1 $-1 $-1 $26 $2 #
lump $-1 -1 $-1 $-1 $27 $3 #
lump $-1 -1 $-1 $-1 $28 $4 #
lump $-1 -1 $-1 $-1 $29 $5 #
lump $-1 -1 $-1 $-1 $30 $6 #
lump $-1 -1 $-1 $-1 $31 $7 #
lump $-1 -1 $-1 $-1 $32 $8 #
lump $-1 -1 $-1 $-1 $33 $9 #
lump $-1 -1 $-1 $-1 $34 $10 #
lump $-1 -1 $-1 $-1 $35 $11 #
shell $-1 -1 $-1 $-1 $-1 $36 $-1 $12 #
shell $-1 -1 $-1 $-1 $-1 $37 $-1 $13 #
shell $-1 -1 $-1 $-1 $-1 $38 $-1 $14 #
shell $-1 -1 $-1 $-1 $-1 $39 $-1 $15 #
shell $-1 -1 $-1 $-1 $-1 $40 $-1 $16 #
shell $-1 -1 $-1 $-1 $-1 $41 $-1 $17 #
shell $-1 -1 $-1 $-1 $-1 $42 $-1 $18 #
shell $-1 -1 $-1 $-1 $-1 $43 $-1 $19 #
shell $-1 -1 $-1 $-1 $-1 $44 $-1 $20 #
shell $-1 -1 $-1 $-1 $-1 $45 $-1 $21 #
shell $-1 -1 $-1 $-1 $-1 $46 $-1 $22 #
shell $-1 -1 $-1 $-1 $-1 $47 $-1 $23 #
face $-1 -1 $-1 $-1 $48 $24 $-1 $49 forward double out #
face $-1 -1 $-1 $-1 $50 $25 $-1 $51 forward double out #
face $-1 -1 $-1 $-1 $52 $26 $-1 $53 forward double out #
face $-1 -1 $-1 $-1 $54 $27 $-1 $55 forward double out #
face $-1 -1 $-1 $-1 $56 $28 $-1 $57 forward double out #
face $-1 -1 $-1 $-1 $58 $29 $-1 $59 forward double out #
face $-1 -1 $-1 $-1 $60 $30 $-1 $61 forward double out #
face $-1 -1 $-1 $-1 $62 $31 $-1 $63 forward double out #
face $-1 -1 $-1 $-1 $64 $32 $-1 $65 forward double out #
face $-1 -1 $-1 $-1 $66 $33 $-1 $67 forward double out #
face $-1 -1 $-1 $-1 $68 $34 $-1 $69 forward double out #
face $-1 -1 $-1 $-1 $70 $35 $-1 $71 forward double out #
loop $-1 -1 $-1 $72 $73 $36 #
plane-surface $-1 -1 $-1 142.68773088153176 204.67480524176162 43.872132917485928 0.99092967442785695 0.10198073295222566 -0.087511773178403363 -0.087970418027758152 0 -0.99612308755094192 forward_v I I I I #
loop $-1 -1 $-1 $74 $75 $37 #
plane-surface $-1 -1 $-1 137.7115623047666 207.40481932589341 43.925723594566847 -0.040281240093062672 0.96478996991315902 -0.2599187096988807 -0 0.2601298358897387 0.96557364736201123 forward_v I I I I #
loop $-1 -1 $-1 $76 $77 $38 #
plane-surface $-1 -1 $-1 142.25214349219962 211.03982989479803 42.229393420533903 0.99839542939695836 0.010560120807006475 -0.055633177221911204 -0.055636279480286148 0 -0.99845110266131287 forward_v I I I I #
loop $-1 -1 $-1 $78 $79 $39 #
plane-surface $-1 -1 $-1 137.77459602054671 214.63816003796614 41.975280368589992 0.034519341445014416 0.99343632952971161 0.10905353839622464 0 -0.10911856979649182 0.99402874089513538 forward_v I I I I #
loop $-1 -1 $-1 $80 $81 $40 #
plane-surface $-1 -1 $-1 142.0898922895507 218.16029843753086 43.250943948452871 0.99886919894760584 0.03539283969299771 -0.031743822898859395 -0.031763723596419602 0 -0.99949540562390304 forward_v I I I I #
loop $-1 -1 $-1 $82 $83 $41 #
plane-surface $-1 -1 $-1 151.18082458448242 204.47368407756011 44.297681903774851 0.99773033414686274 0.058749940119456209 -0.032903265174598635 -0.032960196315152582 0 -0.99945666512303899 forward_v I I I I #
loop $-1 -1 $-1 $84 $85 $42 #
plane-surface $-1 -1 $-1 146.64490437253409 207.22839987347407 43.415474940646547 0.048885622682469626 0.96971517429795295 -0.23929621106745089 -0 0.23958266012143067 0.97087596992053471 forward_v I I I I #
loop $-1 -1 $-1 $86 $87 $43 #
plane-surface $-1 -1 $-1 151.05834666547261 210.98777311201806 42.712879350229507 0.99984396008535503 -0.015662211986712089 -0.0081701038254310739 -0.008171106093017572 0 -0.99996661595536118 forward_v I I I I #
loop $-1 -1 $-1 $88 $89 $44 #
plane-surface $-1 -1 $-1 146.60774133860136 214.66424757935238 41.536306390190326 -0.030550831768681719 0.99207271686826137 0.12189491836770056 0 -0.12195184373289239 0.99253601839436945 forward_v I I I I #
loop $-1 -1 $-1 $90 $91 $45 #
plane-surface $-1 -1 $-1 151.05689328272899 218.2077218371046 43.638145399559562 0.99986223928382745 0.016448445359631483 -0.0022251066449624039 -0.0022254077088623434 0 -0.99999752377719886 forward_v I I I I #
loop $-1 -1 $-1 $92 $93 $46 #
plane-surface $-1 -1 $-1 155.54725641160323 207.50566158313129 43.199332735687761 -0.11672193938790486 0.96710610098662819 -0.22601278348794324 -0 0.22756829623886776 0.97376212215660707 forward_v I I I I #
loop $-1 -1 $-1 $94 $95 $47 #
plane-surface $-1 -1 $-1 155.54951231297088 214.70401630194854 41.452611178523085 0.024298977639166199 0.99162600772716614 0.12683619548367775 0 -0.12687365667500594 0.99191888541448425 forward_v I I I I #
loop $-1 -1 $-1 $-1 $96 $36 #
coedge $-1 -1 $-1 $73 $73 $-1 $97 forward $48 $-1 #
loop $-1 -1 $-1 $-1 $98 $37 #
coedge $-1 -1 $-1 $75 $75 $-1 $99 forward $50 $-1 #
loop $-1 -1 $-1 $-1 $100 $38 #
coedge $-1 -1 $-1 $77 $77 $-1 $101 forward $52 $-1 #
loop $-1 -1 $-1 $-1 $102 $39 #
coedge $-1 -1 $-1 $79 $79 $-1 $103 forward $54 $-1 #
loop $-1 -1 $-1 $-1 $104 $40 #
coedge $-1 -1 $-1 $81 $81 $-1 $105 forward $56 $-1 #
loop $-1 -1 $-1 $-1 $106 $41 #
coedge $-1 -1 $-1 $83 $83 $-1 $107 forward $58 $-1 #
loop $-1 -1 $-1 $-1 $108 $42 #
coedge $-1 -1 $-1 $85 $85 $-1 $109 forward $60 $-1 #
loop $-1 -1 $-1 $-1 $110 $43 #
coedge $-1 -1 $-1 $87 $87 $-1 $111 forward $62 $-1 #
loop $-1 -1 $-1 $-1 $112 $44 #
coedge $-1 -1 $-1 $89 $89 $-1 $113 forward $64 $-1 #
loop $-1 -1 $-1 $-1 $114 $45 #
coedge $-1 -1 $-1 $91 $91 $-1 $115 forward $66 $-1 #
loop $-1 -1 $-1 $-1 $116 $46 #
coedge $-1 -1 $-1 $93 $93 $-1 $117 forward $68 $-1 #
loop $-1 -1 $-1 $-1 $118 $47 #
coedge $-1 -1 $-1 $95 $95 $-1 $119 forward $70 $-1 #
coedge $-1 -1 $-1 $120 $121 $-1 $122 forward $72 $-1 #
edge $-1 -1 $-1 $123 -3.141592653589802 $123 3.1415926535897842 $73 $124 forward @7 unknown #
coedge $-1 -1 $-1 $125 $126 $-1 $127 forward $74 $-1 #
edge $-1 -1 $-1 $128 -3.1415926535897962 $128 3.14159265358979 $75 $129 forward @7 unknown #
coedge $-1 -1 $-1 $130 $131 $-1 $132 forward $76 $-1 #
edge $-1 -1 $-1 $133 -3.1415926535897913 $133 3.1415926535897949 $77 $134 forward @7 unknown #
coedge $-1 -1 $-1 $135 $136 $-1 $137 forward $78 $-1 #
edge $-1 -1 $-1 $138 -3.1415926535897789 $138 3.1415926535898073 $79 $139 forward @7 unknown #
coedge $-1 -1 $-1 $140 $141 $-1 $142 forward $80 $-1 #
edge $-1 -1 $-1 $143 -3.1415926535897869 $143 3.1415926535897993 $81 $144 forward @7 unknown #
coedge $-1 -1 $-1 $145 $146 $-1 $147 forward $82 $-1 #
edge $-1 -1 $-1 $148 -3.1415926535898064 $148 3.1415926535897798 $83 $149 forward @7 unknown #
coedge $-1 -1 $-1 $150 $151 $-1 $152 forward $84 $-1 #
edge $-1 -1 $-1 $153 -3.1415926535898047 $153 3.1415926535897816 $85 $154 forward @7 unknown #
coedge $-1 -1 $-1 $155 $156 $-1 $157 forward $86 $-1 #
edge $-1 -1 $-1 $158 -3.1415926535897976 $158 3.1415926535897887 $87 $159 forward @7 unknown #
coedge $-1 -1 $-1 $160 $161 $-1 $162 forward $88 $-1 #
edge $-1 -1 $-1 $163 -3.1415926535898038 $163 3.1415926535897825 $89 $164 forward @7 unknown #
coedge $-1 -1 $-1 $165 $166 $-1 $167 forward $90 $-1 #
edge $-1 -1 $-1 $168 -3.1415926535897931 $168 3.1415926535897931 $91 $169 forward @7 unknown #
coedge $-1 -1 $-1 $170 $171 $-1 $172 forward $92 $-1 #
edge $-1 -1 $-1 $173 -3.1415926535898295 $173 3.1415926535897567 $93 $174 forward @7 unknown #
coedge $-1 -1 $-1 $175 $176 $-1 $177 forward $94 $-1 #
edge $-1 -1 $-1 $178 -3.1415926535898002 $178 3.141592653589786 $95 $179 forward @7 unknown #
coedge $-1 -1 $-1 $180 $96 $-1 $181 forward $72 $-1 #
coedge $-1 -1 $-1 $96 $182 $-1 $183 forward $72 $-1 #
edge $-1 -1 $-1 $184 0 $185 4.6571903783326398 $96 $186 forward @7 unknown #
vertex $-1 -1 $-1 $97 $187 #
ellipse-curve $-1 -1 $-1 142.71508794938251 204.79570868161019 44.32280087127593 -0.99092967442785695 -0.10198073295222566 0.087511773178403363 0.0029320540328651792 -0 0.033200782508072894 1 I I #
coedge $-1 -1 $-1 $188 $98 $-1 $189 forward $74 $-1 #
coedge $-1 -1 $-1 $98 $190 $-1 $191 forward $74 $-1 #
edge $-1 -1 $-1 $192 0 $193 8.4648914725560882 $98 $194 forward @7 unknown #
vertex $-1 -1 $-1 $99 $195 #
ellipse-curve $-1 -1 $-1 137.78414020190149 207.52686358224383 44.367490741093079 0.040281240093062672 -0.96478996991315902 0.2599187096988807 0 -0.0086701274302049929 -0.032182569666575837 1 I I #
coedge $-1 -1 $-1 $196 $100 $-1 $197 forward $76 $-1 #
coedge $-1 -1 $-1 $100 $198 $-1 $199 forward $76 $-1 #
edge $-1 -1 $-1 $200 0 $201 6.5416291788777183 $100 $202 forward @7 unknown #
vertex $-1 -1 $-1 $101 $203 #
ellipse-curve $-1 -1 $-1 142.27600572323209 211.15542698610267 42.679568350275204 -0.99839542939695836 -0.010560120807006475 0.055633177221911204 0.0018543571950779374 -0 0.033278375251701554 1 I I #
coedge $-1 -1 $-1 $204 $102 $-1 $205 forward $78 $-1 #
coedge $-1 -1 $-1 $102 $206 $-1 $207 forward $78 $-1 #
edge $-1 -1 $-1 $208 0 $209 7.9494949203222927 $102 $210 forward @7 unknown #
vertex $-1 -1 $-1 $103 $211 #
ellipse-curve $-1 -1 $-1 137.84396873168441 214.58567910118379 42.431402835005365 -0.034519341445014416 -0.99343632952971161 -0.10905353839622464 0 0.0036369219313170721 -0.033130977934034862 1 I I #
coedge $-1 -1 $-1 $212 $104 $-1 $213 forward $80 $-1 #
coedge $-1 -1 $-1 $104 $214 $-1 $215 forward $80 $-1 #
edge $-1 -1 $-1 $216 0 $217 7.4593767428533262 $104 $218 forward @7 unknown #
vertex $-1 -1 $-1 $105 $219 #
ellipse-curve $-1 -1 $-1 142.11064094214649 217.94231493013467 43.660791707056617 -0.99886919894760584 -0.03539283969299771 0.031743822898859395 0.0010586849074686652 -0 0.033313181869444687 1 I I #
coedge $-1 -1 $-1 $220 $106 $-1 $221 forward $82 $-1 #
coedge $-1 -1 $-1 $106 $222 $-1 $223 forward $82 $-1 #
edge $-1 -1 $-1 $224 0 $225 4.357414596638975 $106 $226 forward @7 unknown #
vertex $-1 -1 $-1 $107 $227 #
ellipse-curve $-1 -1 $-1 151.18915023766962 204.58651626096076 44.751607697325646 -0.99773033414686274 -0.058749940119456209 0.032903265174598635 0.0010985633431840355 -0 0.03331189064855089 1 I I #
coedge $-1 -1 $-1 $228 $108 $-1 $229 forward $84 $-1 #
coedge $-1 -1 $-1 $108 $230 $-1 $231 forward $84 $-1 #
edge $-1 -1 $-1 $232 0 $233 7.696330630875285 $108 $234 forward @7 unknown #
vertex $-1 -1 $-1 $109 $235 #
ellipse-curve $-1 -1 $-1 146.62294426114221 207.34060726848233 43.865693853047148 -0.048885622682469626 -0.96971517429795295 0.23929621106745089 0 -0.0079852900618472833 -0.032359296077451423 1 I I #
coedge $-1 -1 $-1 $236 $110 $-1 $237 forward $86 $-1 #
coedge $-1 -1 $-1 $110 $238 $-1 $239 forward $86 $-1 #
edge $-1 -1 $-1 $240 0 $241 7.0655452057636126 $110 $242 forward @7 unknown #
vertex $-1 -1 $-1 $111 $243 #
ellipse-curve $-1 -1 $-1 151.06376651661637 211.09817151808869 43.164516473894437 -0.99984396008535503 0.015662211986712089 0.0081701038254310739 0.00027234296608027563 -0 0.033328887309792186 1 I I #
coedge $-1 -1 $-1 $244 $112 $-1 $245 forward $88 $-1 #
coedge $-1 -1 $-1 $112 $246 $-1 $247 forward $88 $-1 #
edge $-1 -1 $-1 $248 0 $249 7.9798728992668355 $112 $250 forward @7 unknown #
vertex $-1 -1 $-1 $113 $251 #
ellipse-curve $-1 -1 $-1 146.58615552890313 214.60702888136311 41.996585173592663 0.030550831768681719 -0.99207271686826137 -0.12189491836770056 0 0.0040646549516173032 -0.033081225493084336 1 I I #
coedge $-1 -1 $-1 $252 $114 $-1 $253 forward $90 $-1 #
coedge $-1 -1 $-1 $114 $254 $-1 $255 forward $90 $-1 #
edge $-1 -1 $-1 $256 0 $257 7.0849375987428749 $114 $258 forward @7 unknown #
vertex $-1 -1 $-1 $115 $259 #
ellipse-curve $-1 -1 $-1 151.06141618234102 217.9882297947666 44.048001561250629 -0.99986223928382745 -0.016448445359631483 0.0022251066449624039 7.4172838936381906e-005 -0 0.033329917467494037 1 I I #
coedge $-1 -1 $-1 $260 $116 $-1 $261 forward $92 $-1 #
coedge $-1 -1 $-1 $116 $262 $-1 $263 forward $92 $-1 #
edge $-1 -1 $-1 $264 0 $265 8.1266799830910799 $116 $266 forward @7 unknown #
vertex $-1 -1 $-1 $117 $267 #
ellipse-curve $-1 -1 $-1 155.58280545952641 207.61505956619843 43.649086512771355 0.11672193938790486 -0.96710610098662819 0.22601278348794324 0 -0.0075848513136414619 -0.03245549153147971 1 I I #
coedge $-1 -1 $-1 $268 $118 $-1 $269 forward $94 $-1 #
coedge $-1 -1 $-1 $118 $270 $-1 $271 forward $94 $-1 #
edge $-1 -1 $-1 $272 0 $273 7.8561580606682977 $118 $274 forward @7 unknown #
vertex $-1 -1 $-1 $119 $275 #
ellipse-curve $-1 -1 $-1 155.58185499964529 214.6444590734271 41.912043143566656 -0.024298977639166199 -0.99162600772716614 -0.12683619548367775 0 0.0042286989769779485 -0.033060656450864756 1 I I #
coedge $-1 -1 $-1 $182 $120 $-1 $276 forward $72 $-1 #
edge $-1 -1 $-1 $185 0 $277 0.74933000000000505 $120 $278 forward @7 unknown #
coedge $-1 -1 $-1 $121 $180 $-1 $279 forward $72 $-1 #
edge $-1 -1 $-1 $280 -0 $184 0.74933000000000505 $121 $281 forward @7 unknown #
vertex $-1 -1 $-1 $122 $282 #
vertex $-1 -1 $-1 $122 $283 #
straight-curve $-1 -1 $-1 142.94327178544222 202.3223854927943 44.024359001133661 -0.12100716102237057 0.96038321225067458 -0.25104053977073465 F 0 F 4.6571903783326398 #
point $-1 -1 $-1 142.71215589534964 204.79570868161019 44.289600088767855 #
coedge $-1 -1 $-1 $190 $125 $-1 $284 forward $74 $-1 #
edge $-1 -1 $-1 $193 0 $285 0.74932999999999605 $125 $286 forward @7 unknown #
coedge $-1 -1 $-1 $126 $188 $-1 $287 forward $74 $-1 #
edge $-1 -1 $-1 $288 -0 $192 0.74932999999999605 $126 $289 forward @7 unknown #
vertex $-1 -1 $-1 $127 $290 #
vertex $-1 -1 $-1 $127 $291 #
straight-curve $-1 -1 $-1 141.81766377087266 207.27608208454251 42.811516546725471 -0.98684907157601209 0.00234091552427706 0.16162744211324739 F 0 F 8.4648914725560882 #
point $-1 -1 $-1 137.78414020190149 207.53553370967404 44.399673310759653 #
coedge $-1 -1 $-1 $198 $130 $-1 $292 forward $76 $-1 #
edge $-1 -1 $-1 $201 0 $293 0.74932999999999583 $130 $294 forward @7 unknown #
coedge $-1 -1 $-1 $131 $196 $-1 $295 forward $76 $-1 #
edge $-1 -1 $-1 $296 -0 $200 0.74932999999999583 $131 $297 forward @7 unknown #
vertex $-1 -1 $-1 $132 $298 #
vertex $-1 -1 $-1 $132 $299 #
straight-curve $-1 -1 $-1 142.3077809959608 207.76032858295355 42.605361511210695 -0.024070702897973448 0.96842228831760624 -0.24815090721512301 F 0 F 6.5416291788777183 #
point $-1 -1 $-1 142.27415136603702 211.15542698610267 42.6462899750235 #
coedge $-1 -1 $-1 $206 $135 $-1 $300 forward $78 $-1 #
edge $-1 -1 $-1 $209 0 $301 0.74932999999999628 $135 $302 forward @7 unknown #
coedge $-1 -1 $-1 $136 $204 $-1 $303 forward $78 $-1 #
edge $-1 -1 $-1 $304 0 $208 0.74932999999999628 $136 $305 forward @7 unknown #
vertex $-1 -1 $-1 $137 $306 #
vertex $-1 -1 $-1 $137 $307 #
straight-curve $-1 -1 $-1 141.63595845258098 214.61849606739673 40.932152496163198 -0.98839613267312554 0.017784398752079079 0.15085357164428118 F 0 F 7.9494949203222927 #
point $-1 -1 $-1 137.84396873168441 214.58204217925248 42.464533812939401 #
coedge $-1 -1 $-1 $214 $140 $-1 $308 forward $80 $-1 #
edge $-1 -1 $-1 $217 0 $309 0.74933000000000449 $140 $310 forward @7 unknown #
coedge $-1 -1 $-1 $141 $212 $-1 $311 forward $80 $-1 #
edge $-1 -1 $-1 $312 0 $216 0.74933000000000449 $141 $313 forward @7 unknown #
vertex $-1 -1 $-1 $142 $314 #
vertex $-1 -1 $-1 $142 $315 #
straight-curve $-1 -1 $-1 142.13066667555253 215.08041498373845 41.100051685492559 -0.016333536913806054 0.88251466665437817 0.47000114756434069 F 0 F 7.4593767428533262 #
point $-1 -1 $-1 142.10958225723903 217.94231493013467 43.627478525187172 #
coedge $-1 -1 $-1 $222 $145 $-1 $316 forward $82 $-1 #
edge $-1 -1 $-1 $225 0 $317 0.74932999999999661 $145 $318 forward @7 unknown #
coedge $-1 -1 $-1 $146 $220 $-1 $319 forward $82 $-1 #
edge $-1 -1 $-1 $320 -0 $224 0.74932999999999661 $146 $321 forward @7 unknown #
vertex $-1 -1 $-1 $147 $322 #
vertex $-1 -1 $-1 $147 $323 #
straight-curve $-1 -1 $-1 151.31423983933811 202.25423658263904 44.38034966845332 -0.064903297815052524 0.96921643991797291 -0.23750169373177304 F 0 F 4.357414596638975 #
point $-1 -1 $-1 151.18805167432643 204.58651626096076 44.718295806677098 #
coedge $-1 -1 $-1 $230 $150 $-1 $324 forward $84 $-1 #
edge $-1 -1 $-1 $233 0 $325 0.74933000000000072 $150 $326 forward @7 unknown #
coedge $-1 -1 $-1 $151 $228 $-1 $327 forward $84 $-1 #
edge $-1 -1 $-1 $328 0 $232 0.74933000000000072 $151 $329 forward @7 unknown #
vertex $-1 -1 $-1 $152 $330 #
vertex $-1 -1 $-1 $152 $331 #
straight-curve $-1 -1 $-1 150.50552170959909 206.98015898264313 43.198194959375975 -0.9977063661339014 0.03617878050927744 -0.057211037543003211 F 0 F 7.696330630875285 #
point $-1 -1 $-1 146.62294426114221 207.34859255854417 43.8980531491246 #
coedge $-1 -1 $-1 $238 $155 $-1 $332 forward $86 $-1 #
edge $-1 -1 $-1 $241 0 $333 0.74932999999999816 $155 $334 forward @7 unknown #
coedge $-1 -1 $-1 $156 $236 $-1 $335 forward $86 $-1 #
edge $-1 -1 $-1 $336 -0 $240 0.74932999999999816 $156 $337 forward @7 unknown #
vertex $-1 -1 $-1 $157 $338 #
vertex $-1 -1 $-1 $157 $339 #
straight-curve $-1 -1 $-1 151.00613519562057 207.44826129006086 43.108622387933551 0.013292317216877314 0.97166232603086944 -0.23599923405656728 F 0 F 7.0655452057636126 #
point $-1 -1 $-1 151.0634941736503 211.09817151808869 43.131187586584645 #
coedge $-1 -1 $-1 $246 $160 $-1 $340 forward $88 $-1 #
edge $-1 -1 $-1 $249 0 $341 0.74932999999999594 $160 $342 forward @7 unknown #
coedge $-1 -1 $-1 $161 $244 $-1 $343 forward $88 $-1 #
edge $-1 -1 $-1 $344 0 $248 0.74932999999999594 $161 $345 forward @7 unknown #
vertex $-1 -1 $-1 $162 $346 #
vertex $-1 -1 $-1 $162 $347 #
straight-curve $-1 -1 $-1 150.6123686301606 214.81714665371456 41.295588353529276 -0.9983578424473043 -0.024374731537134174 -0.051841015484422825 F 0 F 7.9798728992668355 #
point $-1 -1 $-1 146.58615552890313 214.6029642264115 42.029666399085748 #
coedge $-1 -1 $-1 $254 $165 $-1 $348 forward $90 $-1 #
edge $-1 -1 $-1 $257 0 $349 0.7493299999999965 $165 $350 forward @7 unknown #
coedge $-1 -1 $-1 $166 $252 $-1 $351 forward $90 $-1 #
edge $-1 -1 $-1 $352 0 $256 0.7493299999999965 $166 $353 forward @7 unknown #
vertex $-1 -1 $-1 $167 $354 #
vertex $-1 -1 $-1 $167 $355 #
straight-curve $-1 -1 $-1 151.10013597919698 215.2989037058021 41.566875341047265 -0.01344524531362983 0.88122439827674404 0.47250691556870011 F 0 F 7.0849375987428749 #
point $-1 -1 $-1 151.06134200950208 217.9882297947666 44.014671643783139 #
coedge $-1 -1 $-1 $262 $170 $-1 $356 forward $92 $-1 #
edge $-1 -1 $-1 $265 0 $357 0.7493299999999985 $170 $358 forward @7 unknown #
coedge $-1 -1 $-1 $171 $260 $-1 $359 forward $92 $-1 #
edge $-1 -1 $-1 $360 -0 $264 0.7493299999999985 $171 $361 forward @7 unknown #
vertex $-1 -1 $-1 $172 $362 #
vertex $-1 -1 $-1 $172 $363 #
straight-curve $-1 -1 $-1 159.53607310886727 207.78806643970029 42.347757182919764 -0.99018124226997506 -0.095692341785127658 0.10190232176141716 F 0 F 8.1266799830910799 #
point $-1 -1 $-1 155.58280545952641 207.62264441751208 43.681542004302834 #
coedge $-1 -1 $-1 $270 $175 $-1 $364 forward $94 $-1 #
edge $-1 -1 $-1 $273 0 $365 0.74932999999999839 $175 $366 forward @7 unknown #
coedge $-1 -1 $-1 $176 $268 $-1 $367 forward $94 $-1 #
edge $-1 -1 $-1 $368 0 $272 0.74932999999999839 $176 $369 forward @7 unknown #
vertex $-1 -1 $-1 $177 $370 #
vertex $-1 -1 $-1 $177 $371 #
straight-curve $-1 -1 $-1 159.43581169759852 214.70172591485124 40.725989774583141 -0.99733819800943591 0.015320864855966449 0.071286674009638409 F 0 F 7.8561580606682977 #
point $-1 -1 $-1 155.58185499964529 214.64023037445011 41.94510380001752 #
edge $-1 -1 $-1 $277 0 $372 2.3524887734709883 $180 $373 forward @7 unknown #
vertex $-1 -1 $-1 $181 $374 #
straight-curve $-1 -1 $-1 142.37971839941949 206.79507294840033 42.855215414741963 0.058518346146852376 0.25875922497939147 0.96416765484655309 F 0 F 0.74933000000000505 #
edge $-1 -1 $-1 $372 0 $280 2.352081138207188 $182 $375 forward @7 unknown #
vertex $-1 -1 $-1 $279 $376 #
straight-curve $-1 -1 $-1 142.98712133776044 202.51628154284811 44.746838749939833 -0.058518346146852376 -0.25875922497939147 -0.96416765484655309 F 0 F 0.74933000000000505 #
point $-1 -1 $-1 142.94327178544222 202.3223854927943 44.024359001133661 #
point $-1 -1 $-1 142.37971839941949 206.79507294840033 42.855215414741963 #
edge $-1 -1 $-1 $285 0 $377 4.2454860905556275 $188 $378 forward @7 unknown #
vertex $-1 -1 $-1 $189 $379 #
straight-curve $-1 -1 $-1 133.46409348018898 207.29589768040194 44.179675303200952 0.1564281322632799 0.26301136648897039 0.95202692216881468 F 0 F 0.74932999999999605 #
edge $-1 -1 $-1 $377 0 $288 4.2455647063700592 $190 $380 forward @7 unknown #
vertex $-1 -1 $-1 $287 $381 #
straight-curve $-1 -1 $-1 141.9348800632215 207.47316439179369 43.524898880314225 -0.1564281322632799 -0.26301136648897039 -0.95202692216881468 F 0 F 0.74932999999999605 #
point $-1 -1 $-1 141.81766377087266 207.27608208454251 42.811516546725471 #
point $-1 -1 $-1 133.46409348018898 207.29589768040194 44.179675303200952 #
edge $-1 -1 $-1 $293 0 $382 3.2879302588552224 $196 $383 forward @7 unknown #
vertex $-1 -1 $-1 $197 $384 #
straight-curve $-1 -1 $-1 142.15031938352732 214.09538808168753 40.982050295807269 0.051271014804104051 0.24848351089408216 0.9672782577183815 F 0 F 0.74932999999999583 #
edge $-1 -1 $-1 $382 0 $296 3.2875140714339794 $198 $385 forward @7 unknown #
vertex $-1 -1 $-1 $295 $386 #
straight-curve $-1 -1 $-1 142.34619990548396 207.94652473217181 43.330172128066806 -0.051271014804104051 -0.24848351089408216 -0.9672782577183815 F 0 F 0.74932999999999583 #
point $-1 -1 $-1 142.3077809959608 207.76032858295355 42.605361511210695 #
point $-1 -1 $-1 142.15031938352732 214.09538808168753 40.982050295807269 #
edge $-1 -1 $-1 $301 0 $387 3.9890982846399705 $204 $388 forward @7 unknown #
vertex $-1 -1 $-1 $205 $389 #
straight-curve $-1 -1 $-1 133.77870841662977 214.75987305493737 42.131362197661886 0.14919286011491664 -0.11301820204976949 0.98232803914790523 F 0 F 0.74932999999999628 #
edge $-1 -1 $-1 $387 0 $304 3.9882461834241636 $206 $390 forward @7 unknown #
vertex $-1 -1 $-1 $303 $391 #
straight-curve $-1 -1 $-1 141.74775313845089 214.53380813805478 41.668240365737894 -0.14919286011491664 0.11301820204976949 -0.98232803914790523 F 0 F 0.74932999999999628 #
point $-1 -1 $-1 141.63595845258098 214.61849606739673 40.932152496163198 #
point $-1 -1 $-1 133.77870841662977 214.75987305493737 42.131362197661886 #
edge $-1 -1 $-1 $309 0 $392 3.7445759565769783 $212 $393 forward @7 unknown #
vertex $-1 -1 $-1 $213 $394 #
straight-curve $-1 -1 $-1 142.00882867016915 221.66342436340707 44.605967314748376 0.044651593948257656 -0.46908786940599295 0.88202199855447261 F 0 F 0.74933000000000449 #
edge $-1 -1 $-1 $392 0 $312 3.7444732074533746 $214 $395 forward @7 unknown #
vertex $-1 -1 $-1 $311 $396 #
straight-curve $-1 -1 $-1 142.16412545444578 214.72891337055646 41.760977229669386 -0.044651593948257656 0.46908786940599295 -0.88202199855447261 F 0 F 0.74933000000000449 #
point $-1 -1 $-1 142.13066667555253 215.08041498373845 41.100051685492559 #
point $-1 -1 $-1 142.00882867016915 221.66342436340707 44.605967314748376 #
edge $-1 -1 $-1 $317 0 $397 2.2033901282592869 $220 $398 forward @7 unknown #
vertex $-1 -1 $-1 $221 $399 #
straight-curve $-1 -1 $-1 151.0314292620688 206.47751444524008 43.345456321460013 0.017815191647069954 0.24091888999180575 0.97038173282048867 F 0 F 0.74932999999999661 #
edge $-1 -1 $-1 $397 0 $320 2.2046271626265317 $222 $400 forward @7 unknown #
vertex $-1 -1 $-1 $319 $401 #
straight-curve $-1 -1 $-1 151.32758929689501 202.4347643344766 45.107485812307694 -0.017815191647069954 -0.24091888999180575 -0.97038173282048867 F 0 F 0.74932999999999661 #
point $-1 -1 $-1 151.31423983933811 202.25423658263904 44.38034966845332 #
point $-1 -1 $-1 151.0314292620688 206.47751444524008 43.345456321460013 #
edge $-1 -1 $-1 $325 0 $402 3.8624163564143887 $228 $403 forward @7 unknown #
vertex $-1 -1 $-1 $229 $404 #
straight-curve $-1 -1 $-1 142.82684364330348 207.2586028392644 42.757879898709604 -0.047212272265655504 0.24155832144455225 0.96923711169579352 F 0 F 0.74933000000000072 #
edge $-1 -1 $-1 $402 0 $328 3.8626765952610076 $230 $405 forward @7 unknown #
vertex $-1 -1 $-1 $327 $406 #
straight-curve $-1 -1 $-1 150.47014413762227 207.16116587965118 43.924473404282985 0.047212272265655504 -0.24155832144455225 -0.96923711169579352 F 0 F 0.74933000000000072 #
point $-1 -1 $-1 150.50552170959909 206.98015898264313 43.198194959375975 #
point $-1 -1 $-1 142.82684364330348 207.2586028392644 42.757879898709604 #
edge $-1 -1 $-1 $333 0 $407 3.547967839800374 $236 $408 forward @7 unknown #
vertex $-1 -1 $-1 $237 $409 #
straight-curve $-1 -1 $-1 151.10005266380577 214.31358537936939 41.441159131181287 0.011653458505578279 0.23721453039712906 0.97138739104094229 F 0 F 0.74932999999999816 #
edge $-1 -1 $-1 $407 0 $336 3.5488965517589892 $238 $410 forward @7 unknown #
vertex $-1 -1 $-1 $335 $411 #
straight-curve $-1 -1 $-1 151.01486748168256 207.62601325412334 43.836512101662258 -0.011653458505578279 -0.23721453039712906 -0.97138739104094229 F 0 F 0.74932999999999816 #
point $-1 -1 $-1 151.00613519562057 207.44826129006086 43.108622387933551 #
point $-1 -1 $-1 151.10005266380577 214.31358537936939 41.441159131181287 #
edge $-1 -1 $-1 $341 0 $412 4.0043714099588499 $244 $413 forward @7 unknown #
vertex $-1 -1 $-1 $245 $414 #
straight-curve $-1 -1 $-1 142.64559993944485 214.62263939409448 40.881903638994658 -0.04676496282018127 -0.1232370009078334 0.99127477515554174 F 0 F 0.74932999999999594 #
edge $-1 -1 $-1 $412 0 $344 4.0032453528769425 $246 $415 forward @7 unknown #
vertex $-1 -1 $-1 $343 $416 #
straight-curve $-1 -1 $-1 150.57732624057056 214.72480147182429 42.038380280796574 0.04676496282018127 0.1232370009078334 -0.99127477515554174 F 0 F 0.74932999999999594 #
point $-1 -1 $-1 150.6123686301606 214.81714665371456 41.295588353529276 #
point $-1 -1 $-1 142.64559993944485 214.62263939409448 40.881903638994658 #
edge $-1 -1 $-1 $349 0 $417 3.5579768331053416 $252 $418 forward @7 unknown #
vertex $-1 -1 $-1 $253 $419 #
straight-curve $-1 -1 $-1 151.00487725515012 221.54232357808257 44.914557352825973 0.0097284050178331593 -0.47212238862642841 0.88147932947601482 F 0 F 0.7493299999999965 #
edge $-1 -1 $-1 $417 0 $352 3.5581946607972283 $254 $420 forward @7 unknown #
vertex $-1 -1 $-1 $351 $421 #
straight-curve $-1 -1 $-1 151.10742576492899 214.94512823633266 42.227394247003524 -0.0097284050178331593 0.47212238862642841 -0.88147932947601482 F 0 F 0.7493299999999965 #
point $-1 -1 $-1 151.10013597919698 215.2989037058021 41.566875341047265 #
point $-1 -1 $-1 151.00487725515012 221.54232357808257 44.914557352825973 #
edge $-1 -1 $-1 $357 0 $422 4.0768624121057391 $260 $423 forward @7 unknown #
vertex $-1 -1 $-1 $261 $424 #
straight-curve $-1 -1 $-1 151.48918702767961 207.01040540117998 43.17588474140878 0.076624909921031312 0.23565906965079356 0.96881031480415014 F 0 F 0.7493299999999985 #
edge $-1 -1 $-1 $422 0 $360 4.0770620116139984 $262 $425 forward @7 unknown #
vertex $-1 -1 $-1 $359 $426 #
straight-curve $-1 -1 $-1 159.5934904526184 207.96465285036172 43.073715816111957 -0.076624909921031312 -0.23565906965079356 -0.96881031480415014 F 0 F 0.7493299999999985 #
point $-1 -1 $-1 159.53607310886727 207.78806643970029 42.347757182919764 #
point $-1 -1 $-1 151.48918702767961 207.01040540117998 43.17588474140878 #
edge $-1 -1 $-1 $365 0 $427 3.9424253169814443 $268 $428 forward @7 unknown #
vertex $-1 -1 $-1 $269 $429 #
straight-curve $-1 -1 $-1 151.6005651740943 214.82208905078585 41.286029153222195 0.069517884103893549 -0.12824258802558666 0.98930334195645842 F 0 F 0.74932999999999839 #
edge $-1 -1 $-1 $427 0 $368 3.9419120179331109 $270 $430 forward @7 unknown #
vertex $-1 -1 $-1 $367 $431 #
straight-curve $-1 -1 $-1 159.48790353369409 214.60562989636603 41.467304447811372 -0.069517884103893549 0.12824258802558666 -0.98930334195645842 F 0 F 0.74932999999999839 #
point $-1 -1 $-1 159.43581169759852 214.70172591485124 40.725989774583141 #
point $-1 -1 $-1 151.6005651740943 214.82208905078585 41.286029153222195 #
vertex $-1 -1 $-1 $276 $432 #
straight-curve $-1 -1 $-1 142.42356795173771 206.98896899845414 43.577695163548135 0.12806152602111839 -0.91400092112337272 0.38497085829809047 F 0 F 2.3524887734709883 #
point $-1 -1 $-1 142.42356795173771 206.98896899845414 43.577695163548135 #
straight-curve $-1 -1 $-1 142.72483125401595 204.83879209256926 44.483334785807884 0.11151404578857876 -0.9874279045881178 0.11203013359173417 F 0 F 2.352081138207188 #
point $-1 -1 $-1 142.98712133776044 202.51628154284811 44.746838749939833 #
vertex $-1 -1 $-1 $284 $433 #
straight-curve $-1 -1 $-1 133.58130977253782 207.49297998765311 44.893057636789706 0.99608752052984295 0.018295899563519197 -0.086457570541111722 F 0 F 4.2454860905556275 #
point $-1 -1 $-1 133.58130977253782 207.49297998765311 44.893057636789706 #
straight-curve $-1 -1 $-1 137.81018548592331 207.57065497476424 44.526003223634184 0.97153025865074694 -0.022962924772828307 -0.23580004370629393 F 0 F 4.2455647063700592 #
point $-1 -1 $-1 141.9348800632215 207.47316439179369 43.524898880314225 #
vertex $-1 -1 $-1 $292 $434 #
straight-curve $-1 -1 $-1 142.18873829305048 214.28158423090579 41.70686091266338 0.029138104097090802 -0.93821477263124942 0.34482460948447424 F 0 F 3.2879302588552224 #
point $-1 -1 $-1 142.18873829305048 214.28158423090579 41.70686091266338 #
straight-curve $-1 -1 $-1 142.28454234719698 211.19679949066654 42.840620180185319 0.018755070532697978 -0.98867250082278424 0.14891250265217881 F 0 F 3.2875140714339794 #
point $-1 -1 $-1 142.34619990548396 207.94652473217181 43.330172128066806 #
vertex $-1 -1 $-1 $300 $435 #
straight-curve $-1 -1 $-1 133.89050310249968 214.67518512559542 42.867450067236582 0.99729461560582178 -0.027154897504027706 -0.06830857358474042 F 0 F 3.989098284639971 #
point $-1 -1 $-1 133.89050310249968 214.67518512559542 42.867450067236582 #
straight-curve $-1 -1 $-1 137.86880934289354 214.56686157054253 42.594960453523491 0.97259387138108588 -0.0082877111812012412 -0.23236280940660206 F 0 F 3.9882461834241636 #
point $-1 -1 $-1 141.74775313845089 214.53380813805478 41.668240365737894 #
vertex $-1 -1 $-1 $308 $436 #
straight-curve $-1 -1 $-1 142.0422874490624 221.31192275022508 45.266892858925203 0.020239403434545188 -0.92072132875043977 -0.38969552388068074 F 0 F 3.7445759565769783 #
point $-1 -1 $-1 142.0422874490624 221.31192275022508 45.266892858925203 #
straight-curve $-1 -1 $-1 142.11807543253886 217.86421179987857 43.807648369815936 0.012298130966796392 -0.83731362347080163 -0.54658453319218603 F 0 F 3.7444732074533746 #
point $-1 -1 $-1 142.16412545444578 214.72891337055646 41.760977229669386 #
vertex $-1 -1 $-1 $316 $437 #
straight-curve $-1 -1 $-1 151.0447787196257 206.65804219707763 44.072592465314386 0.066868660961788479 -0.92194882553009316 0.38149566876290936 F 0 F 2.2033901282592869 #
point $-1 -1 $-1 151.0447787196257 206.65804219707763 44.072592465314386 #
straight-curve $-1 -1 $-1 151.19211646707882 204.62662925614438 44.913176255840256 0.06144931538210565 -0.99421115680007277 0.088137150698961247 F 0 F 2.2046271626265317 #
point $-1 -1 $-1 151.32758929689501 202.4347643344766 45.107485812307694 #
vertex $-1 -1 $-1 $324 $438 #
straight-curve $-1 -1 $-1 142.79146607132665 207.43960973627244 43.484158343616613 0.98995473135188461 -0.015219231135445677 0.14056317041694719 F 0 F 3.8624163564143887 #
point $-1 -1 $-1 142.79146607132665 207.43960973627244 43.484158343616613 #
straight-curve $-1 -1 $-1 146.61508341780998 207.38082672900285 44.027071832144493 0.99802834245609251 -0.056867522800423918 -0.026561485366748822 F 0 F 3.8626765952610076 #
point $-1 -1 $-1 150.47014413762227 207.16116587965118 43.924473404282985 #
vertex $-1 -1 $-1 $332 $439 #
straight-curve $-1 -1 $-1 151.10878494986775 214.49133734343187 42.169048844909995 -0.012141635537665814 -0.94523675451938038 0.32615956001953911 F 0 F 3.547967839800374 #
point $-1 -1 $-1 151.10878494986775 214.49133734343187 42.169048844909995 #
straight-curve $-1 -1 $-1 151.06570681745754 211.13766773739982 43.326252474502759 -0.014325392423676819 -0.98950601463318422 0.14377979738704749 F 0 F 3.5488965517589892 #
point $-1 -1 $-1 151.01486748168256 207.62601325412334 43.836512101662258 #
vertex $-1 -1 $-1 $340 $440 #
straight-curve $-1 -1 $-1 142.6105575498548 214.53029421220421 41.624695566261956 0.99087002840716298 0.014038585024334548 0.13408767629764592 F 0 F 4.0043714099588499 #
point $-1 -1 $-1 142.6105575498548 214.53029421220421 41.624695566261956 #
straight-curve $-1 -1 $-1 146.57836916259356 214.58650992071193 42.161632423656066 0.99892880038020537 0.034544860212721247 -0.030788056188191585 F 0 F 4.0032453528769425 #
point $-1 -1 $-1 150.57732624057056 214.72480147182429 42.038380280796574 #
vertex $-1 -1 $-1 $348 $441 #
straight-curve $-1 -1 $-1 151.01216704088213 221.18854810861313 45.575076258782232 0.014297147868154057 -0.921570556908615 -0.38794754826133548 F 0 F 3.5579768331053416 #
point $-1 -1 $-1 151.01216704088213 221.18854810861313 45.575076258782232 #
straight-curve $-1 -1 $-1 151.06303596177651 217.90962141706029 44.194767869608384 0.012475372312131496 -0.83314530635134565 -0.55291343227524881 F 0 F 3.5581946607972283 #
point $-1 -1 $-1 151.10742576492899 214.94512823633266 42.227394247003524 #
vertex $-1 -1 $-1 $356 $442 #
straight-curve $-1 -1 $-1 151.54660437143073 207.18699181184141 43.901843374600972 0.9931556982582106 0.11462368415138927 -0.022431452222468302 F 0 F 4.0768624121057391 #
point $-1 -1 $-1 151.54660437143073 207.18699181184141 43.901843374600972 #
straight-curve $-1 -1 $-1 155.59556350702826 207.65429680129529 43.810393430186245 0.98059017356163924 0.076122474512857918 -0.18068835155702173 F 0 F 4.0770620116139993 #
point $-1 -1 $-1 159.5934904526184 207.96465285036172 43.073715816111957 #
vertex $-1 -1 $-1 $364 $443 #
straight-curve $-1 -1 $-1 151.65265701018987 214.72599303230064 42.027343826450426 0.99958081645437802 -0.026097222269919524 0.012535005631967995 F 0 F 3.9424253169814447 #
point $-1 -1 $-1 151.65265701018987 214.72599303230064 42.027343826450426 #
straight-curve $-1 -1 $-1 155.59342972734859 214.62310668252081 42.076762150002402 0.98796568483218394 -0.0044335809818382196 -0.15460966643050311 F 0 F 3.9419120179331109 #
point $-1 -1 $-1 159.48790353369409 214.60562989636603 41.467304447811372 #
point $-1 -1 $-1 142.72483125401595 204.83879209256926 44.483334785807884 #
point $-1 -1 $-1 137.81018548592331 207.57065497476424 44.526003223634184 #
point $-1 -1 $-1 142.28454234719698 211.19679949066654 42.840620180185319 #
point $-1 -1 $-1 137.86880934289354 214.56686157054253 42.594960453523491 #
point $-1 -1 $-1 142.11807543253886 217.86421179987857 43.807648369815936 #
point $-1 -1 $-1 151.19211646707882 204.62662925614438 44.913176255840256 #
point $-1 -1 $-1 146.61508341780998 207.38082672900285 44.027071832144493 #
point $-1 -1 $-1 151.06570681745754 211.13766773739982 43.326252474502759 #
point $-1 -1 $-1 146.57836916259356 214.58650992071193 42.161632423656066 #
point $-1 -1 $-1 151.06303596177651 217.90962141706029 44.194767869608384 #
point $-1 -1 $-1 155.59556350702826 207.65429680129529 43.810393430186245 #
point $-1 -1 $-1 155.59342972734859 214.62310668252081 42.076762150002402 #
End-of-ACIS-data 