400 0 6 0        
7 Unknown 13 ACIS 5.0.1 NT 24 Mon Jul 22 23:21:08 2013
25.399999999999999 9.9999999999999995e-007 1e-010 
-0 body $-1 $7 $-1 $6 #                                                                                            
-1 body $-1 $37 $-1 $36 #                                                                                          
-2 body $-1 $67 $-1 $66 #                                                                                          
-3 body $-1 $97 $-1 $96 #                                                                                          
-4 body $-1 $127 $-1 $126 #                                                                                        
-5 body $-1 $157 $-1 $156 #                                                                                        
-6 transform $-1 1 0 0 0 1 0 0 0 1 0 0 0 1 0 0 0 #
-7 lump $-1 $-1 $8 $0 #
-8 shell $-1 $-1 $-1 $9 $-1 $7 #
-9 face $-1 $-1 $11 $8 $-1 $10 forward single #
-10 spline-surface $-1 forward { exactsur nubs 1 1 open open none none 2 2
        -6.2309912829689997 1 6.2309912829689997 1 
        -72 1 96 1 
        304.88595517036799 276.37916822965002 0 
        304.88595517036799 263.91718566371202 0 
        304.88595517036799 276.37916822965002 168 
        304.88595517036799 263.91718566371202 168 
        0
        0
        0
        0
        0
        0
        0
        F -6.2309912829689997 F 6.2309912829689997 F -72 F 96 } F -6.2309912829689997 F 6.2309912829689997 F -72 F 96 #
-11 loop $-1 $-1 $12 $9 #
-12 coedge $-1 $14 $18 $-1 $20 forward $11 $13 #
-13 pcurve $-1 0 forward { exppc nubs 1 open 2
        -6.2309912829689997 1 6.2309912829689997 1 
        -6.2309912829689997 -72 
        6.2309912829689997 -72 
        0
        spline 0 { ref 0 } F -6.2309912829689997 F 6.2309912829689997 F -72 F 96 
        } 0 0 #
-14 coedge $-1 $16 $12 $-1 $22 forward $11 $15 #
-15 pcurve $-1 0 forward { exppc nubs 1 open 2
        -72 1 96 1 
        6.2309912829689997 -72 
        6.2309912829689997 96 
        0
        spline 0 { ref 0 } F -6.2309912829689997 F 6.2309912829689997 F -72 F 96 
        } 0 0 #
-16 coedge $-1 $18 $14 $-1 $24 forward $11 $17 #
-17 pcurve $-1 0 forward { exppc nubs 1 open 2
        -6.2309912829689997 1 6.2309912829689997 1 
        6.2309912829689997 96 
        -6.2309912829689997 96 
        0
        spline 0 { ref 0 } F -6.2309912829689997 F 6.2309912829689997 F -72 F 96 
        } 0 0 #
-18 coedge $-1 $12 $16 $-1 $26 forward $11 $19 #
-19 pcurve $-1 0 forward { exppc nubs 1 open 2
        -96 1 72 1 
        -6.2309912829689997 96 
        -6.2309912829689997 -72 
        0
        spline 0 { ref 0 } F -6.2309912829689997 F 6.2309912829689997 F -72 F 96 
        } 0 0 #
-20 edge $-1 $28 $30 $12 $21 forward #
-21 intcurve-curve $-1 forward { exactcur nubs 1 open 2
        -6.2309912829689997 1 6.2309912829689997 1 
        304.88595517036799 276.37916822965002 0 
        304.88595517036799 263.91718566371202 0 
        0
        null_surface
        null_surface
        nullbs
        nullbs
        I I
        0
        0
        0
        F -6.2309912829689997 F 6.2309912829689997 } F -6.2309912829689997 F 6.2309912829689997 #
-22 edge $-1 $30 $32 $14 $23 forward #
-23 intcurve-curve $-1 forward { exactcur nubs 1 open 2
        -72 1 96 1 
        304.88595517036799 263.91718566371202 0 
        304.88595517036799 263.91718566371202 168 
        0
        null_surface
        null_surface
        nullbs
        nullbs
        I I
        0
        0
        0
        F -72 F 96 } F -72 F 96 #
-24 edge $-1 $32 $34 $16 $25 forward #
-25 intcurve-curve $-1 forward { exactcur nubs 1 open 2
        -6.2309912829689997 1 6.2309912829689997 1 
        304.88595517036799 263.91718566371202 168 
        304.88595517036799 276.37916822965002 168 
        0
        null_surface
        null_surface
        nullbs
        nullbs
        I I
        0
        0
        0
        F -6.2309912829689997 F 6.2309912829689997 } F -6.2309912829689997 F 6.2309912829689997 #
-26 edge $-1 $34 $28 $18 $27 forward #
-27 intcurve-curve $-1 forward { exactcur nubs 1 open 2
        -96 1 72 1 
        304.88595517036799 276.37916822965002 168 
        304.88595517036799 276.37916822965002 0 
        0
        null_surface
        null_surface
        nullbs
        nullbs
        I I
        0
        0
        0
        F -96 F 72 } F -96 F 72 #
-28 vertex $-1 $20 $29 #
-29 point $-1 304.88595517036799 276.37916822965002 0 #
-30 vertex $-1 $22 $31 #
-31 point $-1 304.88595517036799 263.91718566371202 0 #
-32 vertex $-1 $24 $33 #
-33 point $-1 304.88595517036799 263.91718566371202 168 #
-34 vertex $-1 $26 $35 #
-35 point $-1 304.88595517036799 276.37916822965002 168 #
-36 transform $-1 1 0 0 0 1 0 0 0 1 0 0 0 1 0 0 0 #
-37 lump $-1 $-1 $38 $1 #
-38 shell $-1 $-1 $-1 $39 $-1 $37 #
-39 face $-1 $-1 $41 $38 $-1 $40 forward single #
-40 spline-surface $-1 forward { exactsur nubs 1 1 open open none none 2 2
        -6.2309912829689997 1 6.2309912829689997 1 
        -72 1 96 1 
        317.34793773630599 276.37916822965002 0 
        304.88595517036799 276.37916822965002 0 
        317.34793773630599 276.37916822965002 168 
        304.88595517036799 276.37916822965002 168 
        0
        0
        0
        0
        0
        0
        0
        F -6.2309912829689997 F 6.2309912829689997 F -72 F 96 } F -6.2309912829689997 F 6.2309912829689997 F -72 F 96 #
-41 loop $-1 $-1 $42 $39 #
-42 coedge $-1 $44 $48 $-1 $50 forward $41 $43 #
-43 pcurve $-1 0 forward { exppc nubs 1 open 2
        -6.2309912829689997 1 6.2309912829689997 1 
        -6.2309912829689997 -72 
        6.2309912829689997 -72 
        0
        spline 0 { ref 9 } F -6.2309912829689997 F 6.2309912829689997 F -72 F 96 
        } 0 0 #
-44 coedge $-1 $46 $42 $-1 $52 forward $41 $45 #
-45 pcurve $-1 0 forward { exppc nubs 1 open 2
        -72 1 96 1 
        6.2309912829689997 -72 
        6.2309912829689997 96 
        0
        spline 0 { ref 9 } F -6.2309912829689997 F 6.2309912829689997 F -72 F 96 
        } 0 0 #
-46 coedge $-1 $48 $44 $-1 $54 forward $41 $47 #
-47 pcurve $-1 0 forward { exppc nubs 1 open 2
        -6.2309912829689997 1 6.2309912829689997 1 
        6.2309912829689997 96 
        -6.2309912829689997 96 
        0
        spline 0 { ref 9 } F -6.2309912829689997 F 6.2309912829689997 F -72 F 96 
        } 0 0 #
-48 coedge $-1 $42 $46 $-1 $56 forward $41 $49 #
-49 pcurve $-1 0 forward { exppc nubs 1 open 2
        -96 1 72 1 
        -6.2309912829689997 96 
        -6.2309912829689997 -72 
        0
        spline 0 { ref 9 } F -6.2309912829689997 F 6.2309912829689997 F -72 F 96 
        } 0 0 #
-50 edge $-1 $58 $60 $42 $51 forward #
-51 intcurve-curve $-1 forward { exactcur nubs 1 open 2
        -6.2309912829689997 1 6.2309912829689997 1 
        317.34793773630599 276.37916822965002 0 
        304.88595517036799 276.37916822965002 0 
        0
        null_surface
        null_surface
        nullbs
        nullbs
        I I
        0
        0
        0
        F -6.2309912829689997 F 6.2309912829689997 } F -6.2309912829689997 F 6.2309912829689997 #
-52 edge $-1 $60 $62 $44 $53 forward #
-53 intcurve-curve $-1 forward { exactcur nubs 1 open 2
        -72 1 96 1 
        304.88595517036799 276.37916822965002 0 
        304.88595517036799 276.37916822965002 168 
        0
        null_surface
        null_surface
        nullbs
        nullbs
        I I
        0
        0
        0
        F -72 F 96 } F -72 F 96 #
-54 edge $-1 $62 $64 $46 $55 forward #
-55 intcurve-curve $-1 forward { exactcur nubs 1 open 2
        -6.2309912829689997 1 6.2309912829689997 1 
        304.88595517036799 276.37916822965002 168 
        317.34793773630599 276.37916822965002 168 
        0
        null_surface
        null_surface
        nullbs
        nullbs
        I I
        0
        0
        0
        F -6.2309912829689997 F 6.2309912829689997 } F -6.2309912829689997 F 6.2309912829689997 #
-56 edge $-1 $64 $58 $48 $57 forward #
-57 intcurve-curve $-1 forward { exactcur nubs 1 open 2
        -96 1 72 1 
        317.34793773630599 276.37916822965002 168 
        317.34793773630599 276.37916822965002 0 
        0
        null_surface
        null_surface
        nullbs
        nullbs
        I I
        0
        0
        0
        F -96 F 72 } F -96 F 72 #
-58 vertex $-1 $50 $59 #
-59 point $-1 317.34793773630599 276.37916822965002 0 #
-60 vertex $-1 $52 $61 #
-61 point $-1 304.88595517036799 276.37916822965002 0 #
-62 vertex $-1 $54 $63 #
-63 point $-1 304.88595517036799 276.37916822965002 168 #
-64 vertex $-1 $56 $65 #
-65 point $-1 317.34793773630599 276.37916822965002 168 #
-66 transform $-1 1 0 0 0 1 0 0 0 1 0 0 0 1 0 0 0 #
-67 lump $-1 $-1 $68 $2 #
-68 shell $-1 $-1 $-1 $69 $-1 $67 #
-69 face $-1 $-1 $71 $68 $-1 $70 forward single #
-70 spline-surface $-1 forward { exactsur nubs 1 1 open open none none 2 2
        -6.2309912829689997 1 6.2309912829689997 1 
        -72 1 96 1 
        317.34793773630599 263.91718566371202 0 
        317.34793773630599 276.37916822965002 0 
        317.34793773630599 263.91718566371202 168 
        317.34793773630599 276.37916822965002 168 
        0
        0
        0
        0
        0
        0
        0
        F -6.2309912829689997 F 6.2309912829689997 F -72 F 96 } F -6.2309912829689997 F 6.2309912829689997 F -72 F 96 #
-71 loop $-1 $-1 $72 $69 #
-72 coedge $-1 $74 $78 $-1 $80 forward $71 $73 #
-73 pcurve $-1 0 forward { exppc nubs 1 open 2
        -6.2309912829689997 1 6.2309912829689997 1 
        -6.2309912829689997 -72 
        6.2309912829689997 -72 
        0
        spline 0 { ref 18 } F -6.2309912829689997 F 6.2309912829689997 F -72 F 96 
        } 0 0 #
-74 coedge $-1 $76 $72 $-1 $82 forward $71 $75 #
-75 pcurve $-1 0 forward { exppc nubs 1 open 2
        -72 1 96 1 
        6.2309912829689997 -72 
        6.2309912829689997 96 
        0
        spline 0 { ref 18 } F -6.2309912829689997 F 6.2309912829689997 F -72 F 96 
        } 0 0 #
-76 coedge $-1 $78 $74 $-1 $84 forward $71 $77 #
-77 pcurve $-1 0 forward { exppc nubs 1 open 2
        -6.2309912829689997 1 6.2309912829689997 1 
        6.2309912829689997 96 
        -6.2309912829689997 96 
        0
        spline 0 { ref 18 } F -6.2309912829689997 F 6.2309912829689997 F -72 F 96 
        } 0 0 #
-78 coedge $-1 $72 $76 $-1 $86 forward $71 $79 #
-79 pcurve $-1 0 forward { exppc nubs 1 open 2
        -96 1 72 1 
        -6.2309912829689997 96 
        -6.2309912829689997 -72 
        0
        spline 0 { ref 18 } F -6.2309912829689997 F 6.2309912829689997 F -72 F 96 
        } 0 0 #
-80 edge $-1 $88 $90 $72 $81 forward #
-81 intcurve-curve $-1 forward { exactcur nubs 1 open 2
        -6.2309912829689997 1 6.2309912829689997 1 
        317.34793773630599 263.91718566371202 0 
        317.34793773630599 276.37916822965002 0 
        0
        null_surface
        null_surface
        nullbs
        nullbs
        I I
        0
        0
        0
        F -6.2309912829689997 F 6.2309912829689997 } F -6.2309912829689997 F 6.2309912829689997 #
-82 edge $-1 $90 $92 $74 $83 forward #
-83 intcurve-curve $-1 forward { exactcur nubs 1 open 2
        -72 1 96 1 
        317.34793773630599 276.37916822965002 0 
        317.34793773630599 276.37916822965002 168 
        0
        null_surface
        null_surface
        nullbs
        nullbs
        I I
        0
        0
        0
        F -72 F 96 } F -72 F 96 #
-84 edge $-1 $92 $94 $76 $85 forward #
-85 intcurve-curve $-1 forward { exactcur nubs 1 open 2
        -6.2309912829689997 1 6.2309912829689997 1 
        317.34793773630599 276.37916822965002 168 
        317.34793773630599 263.91718566371202 168 
        0
        null_surface
        null_surface
        nullbs
        nullbs
        I I
        0
        0
        0
        F -6.2309912829689997 F 6.2309912829689997 } F -6.2309912829689997 F 6.2309912829689997 #
-86 edge $-1 $94 $88 $78 $87 forward #
-87 intcurve-curve $-1 forward { exactcur nubs 1 open 2
        -96 1 72 1 
        317.34793773630599 263.91718566371202 168 
        317.34793773630599 263.91718566371202 0 
        0
        null_surface
        null_surface
        nullbs
        nullbs
        I I
        0
        0
        0
        F -96 F 72 } F -96 F 72 #
-88 vertex $-1 $80 $89 #
-89 point $-1 317.34793773630599 263.91718566371202 0 #
-90 vertex $-1 $82 $91 #
-91 point $-1 317.34793773630599 276.37916822965002 0 #
-92 vertex $-1 $84 $93 #
-93 point $-1 317.34793773630599 276.37916822965002 168 #
-94 vertex $-1 $86 $95 #
-95 point $-1 317.34793773630599 263.91718566371202 168 #
-96 transform $-1 1 0 0 0 1 0 0 0 1 0 0 0 1 0 0 0 #
-97 lump $-1 $-1 $98 $3 #
-98 shell $-1 $-1 $-1 $99 $-1 $97 #
-99 face $-1 $-1 $101 $98 $-1 $100 forward single #
-100 spline-surface $-1 forward { exactsur nubs 1 1 open open none none 2 2
        -6.2309912829689997 1 6.2309912829689997 1 
        -72 1 96 1 
        304.88595517036799 263.91718566371202 0 
        317.34793773630599 263.91718566371202 0 
        304.88595517036799 263.91718566371202 168 
        317.34793773630599 263.91718566371202 168 
        0
        0
        0
        0
        0
        0
        0
        F -6.2309912829689997 F 6.2309912829689997 F -72 F 96 } F -6.2309912829689997 F 6.2309912829689997 F -72 F 96 #
-101 loop $-1 $-1 $102 $99 #
-102 coedge $-1 $104 $108 $-1 $110 forward $101 $103 #
-103 pcurve $-1 0 forward { exppc nubs 1 open 2
        -6.2309912829689997 1 6.2309912829689997 1 
        -6.2309912829689997 -72 
        6.2309912829689997 -72 
        0
        spline 0 { ref 27 } F -6.2309912829689997 F 6.2309912829689997 F -72 F 96 
        } 0 0 #
-104 coedge $-1 $106 $102 $-1 $112 forward $101 $105 #
-105 pcurve $-1 0 forward { exppc nubs 1 open 2
        -72 1 96 1 
        6.2309912829689997 -72 
        6.2309912829689997 96 
        0
        spline 0 { ref 27 } F -6.2309912829689997 F 6.2309912829689997 F -72 F 96 
        } 0 0 #
-106 coedge $-1 $108 $104 $-1 $114 forward $101 $107 #
-107 pcurve $-1 0 forward { exppc nubs 1 open 2
        -6.2309912829689997 1 6.2309912829689997 1 
        6.2309912829689997 96 
        -6.2309912829689997 96 
        0
        spline 0 { ref 27 } F -6.2309912829689997 F 6.2309912829689997 F -72 F 96 
        } 0 0 #
-108 coedge $-1 $102 $106 $-1 $116 forward $101 $109 #
-109 pcurve $-1 0 forward { exppc nubs 1 open 2
        -96 1 72 1 
        -6.2309912829689997 96 
        -6.2309912829689997 -72 
        0
        spline 0 { ref 27 } F -6.2309912829689997 F 6.2309912829689997 F -72 F 96 
        } 0 0 #
-110 edge $-1 $118 $120 $102 $111 forward #
-111 intcurve-curve $-1 forward { exactcur nubs 1 open 2
        -6.2309912829689997 1 6.2309912829689997 1 
        304.88595517036799 263.91718566371202 0 
        317.34793773630599 263.91718566371202 0 
        0
        null_surface
        null_surface
        nullbs
        nullbs
        I I
        0
        0
        0
        F -6.2309912829689997 F 6.2309912829689997 } F -6.2309912829689997 F 6.2309912829689997 #
-112 edge $-1 $120 $122 $104 $113 forward #
-113 intcurve-curve $-1 forward { exactcur nubs 1 open 2
        -72 1 96 1 
        317.34793773630599 263.91718566371202 0 
        317.34793773630599 263.91718566371202 168 
        0
        null_surface
        null_surface
        nullbs
        nullbs
        I I
        0
        0
        0
        F -72 F 96 } F -72 F 96 #
-114 edge $-1 $122 $124 $106 $115 forward #
-115 intcurve-curve $-1 forward { exactcur nubs 1 open 2
        -6.2309912829689997 1 6.2309912829689997 1 
        317.34793773630599 263.91718566371202 168 
        304.88595517036799 263.91718566371202 168 
        0
        null_surface
        null_surface
        nullbs
        nullbs
        I I
        0
        0
        0
        F -6.2309912829689997 F 6.2309912829689997 } F -6.2309912829689997 F 6.2309912829689997 #
-116 edge $-1 $124 $118 $108 $117 forward #
-117 intcurve-curve $-1 forward { exactcur nubs 1 open 2
        -96 1 72 1 
        304.88595517036799 263.91718566371202 168 
        304.88595517036799 263.91718566371202 0 
        0
        null_surface
        null_surface
        nullbs
        nullbs
        I I
        0
        0
        0
        F -96 F 72 } F -96 F 72 #
-118 vertex $-1 $110 $119 #
-119 point $-1 304.88595517036799 263.91718566371202 0 #
-120 vertex $-1 $112 $121 #
-121 point $-1 317.34793773630599 263.91718566371202 0 #
-122 vertex $-1 $114 $123 #
-123 point $-1 317.34793773630599 263.91718566371202 168 #
-124 vertex $-1 $116 $125 #
-125 point $-1 304.88595517036799 263.91718566371202 168 #
-126 transform $-1 1 0 0 0 1 0 0 0 1 0 0 0 1 0 0 0 #
-127 lump $-1 $-1 $128 $4 #
-128 shell $-1 $-1 $-1 $129 $-1 $127 #
-129 face $-1 $-1 $131 $128 $-1 $130 forward single #
-130 spline-surface $-1 forward { exactsur nubs 1 1 open open none none 2 2
        0 1 12.461982565937999 1 
        0 1 12.461982565937999 1 
        304.88595517036799 263.91718566371202 0 
        304.88595517036799 276.37916822965002 0 
        317.34793773630599 263.91718566371202 0 
        317.34793773630599 276.37916822965002 0 
        0
        0
        0
        0
        0
        0
        0
        F 0 F 12.461982565937999 F 0 F 12.461982565937999 } F 0 F 12.461982565937999 F 0 F 12.461982565937999 #
-131 loop $-1 $-1 $132 $129 #
-132 coedge $-1 $134 $138 $-1 $140 forward $131 $133 #
-133 pcurve $-1 0 forward { exppc nubs 1 open 2
        0 1 12.461982565937999 1 
        0 0 
        12.461982565937999 0 
        0
        spline 0 { ref 36 } F 0 F 12.461982565937999 F 0 F 12.461982565937999 
        } 0 0 #
-134 coedge $-1 $136 $132 $-1 $142 forward $131 $135 #
-135 pcurve $-1 0 forward { exppc nubs 1 open 2
        0 1 12.461982565937999 1 
        12.461982565937999 0 
        12.461982565937999 12.461982565937999 
        0
        spline 0 { ref 36 } F 0 F 12.461982565937999 F 0 F 12.461982565937999 
        } 0 0 #
-136 coedge $-1 $138 $134 $-1 $144 forward $131 $137 #
-137 pcurve $-1 0 forward { exppc nubs 1 open 2
        -12.461982565937999 1 0 1 
        12.461982565937999 12.461982565937999 
        0 12.461982565937999 
        0
        spline 0 { ref 36 } F 0 F 12.461982565937999 F 0 F 12.461982565937999 
        } 0 0 #
-138 coedge $-1 $132 $136 $-1 $146 forward $131 $139 #
-139 pcurve $-1 0 forward { exppc nubs 1 open 2
        -12.461982565937999 1 0 1 
        0 12.461982565937999 
        0 0 
        0
        spline 0 { ref 36 } F 0 F 12.461982565937999 F 0 F 12.461982565937999 
        } 0 0 #
-140 edge $-1 $148 $150 $132 $141 forward #
-141 intcurve-curve $-1 forward { exactcur nubs 1 open 2
        0 1 12.461982565937999 1 
        304.88595517036799 263.91718566371202 0 
        304.88595517036799 276.37916822965002 0 
        0
        null_surface
        null_surface
        nullbs
        nullbs
        I I
        0
        0
        0
        F 0 F 12.461982565937999 } F 0 F 12.461982565937999 #
-142 edge $-1 $150 $152 $134 $143 forward #
-143 intcurve-curve $-1 forward { exactcur nubs 1 open 2
        0 1 12.461982565937999 1 
        304.88595517036799 276.37916822965002 0 
        317.34793773630599 276.37916822965002 0 
        0
        null_surface
        null_surface
        nullbs
        nullbs
        I I
        0
        0
        0
        F 0 F 12.461982565937999 } F 0 F 12.461982565937999 #
-144 edge $-1 $152 $154 $136 $145 forward #
-145 intcurve-curve $-1 forward { exactcur nubs 1 open 2
        -12.461982565937999 1 -0 1 
        317.34793773630599 276.37916822965002 0 
        317.34793773630599 263.91718566371202 0 
        0
        null_surface
        null_surface
        nullbs
        nullbs
        I I
        0
        0
        0
        F -12.461982565937999 F -0 } F -12.461982565937999 F -0 #
-146 edge $-1 $154 $148 $138 $147 forward #
-147 intcurve-curve $-1 forward { exactcur nubs 1 open 2
        -12.461982565937999 1 -0 1 
        317.34793773630599 263.91718566371202 0 
        304.88595517036799 263.91718566371202 0 
        0
        null_surface
        null_surface
        nullbs
        nullbs
        I I
        0
        0
        0
        F -12.461982565937999 F -0 } F -12.461982565937999 F -0 #
-148 vertex $-1 $140 $149 #
-149 point $-1 304.88595517036799 263.91718566371202 0 #
-150 vertex $-1 $142 $151 #
-151 point $-1 304.88595517036799 276.37916822965002 0 #
-152 vertex $-1 $144 $153 #
-153 point $-1 317.34793773630599 276.37916822965002 0 #
-154 vertex $-1 $146 $155 #
-155 point $-1 317.34793773630599 263.91718566371202 0 #
-156 transform $-1 1 0 0 0 1 0 0 0 1 0 0 0 1 0 0 0 #
-157 lump $-1 $-1 $158 $5 #
-158 shell $-1 $-1 $-1 $159 $-1 $157 #
-159 face $-1 $-1 $161 $158 $-1 $160 forward single #
-160 spline-surface $-1 forward { exactsur nubs 1 1 open open none none 2 2
        0 1 12.461982565937999 1 
        0 1 12.461982565937999 1 
        304.88595517036799 263.91718566371202 168 
        317.34793773630599 263.91718566371202 168 
        304.88595517036799 276.37916822965002 168 
        317.34793773630599 276.37916822965002 168 
        0
        0
        0
        0
        0
        0
        0
        F 0 F 12.461982565937999 F 0 F 12.461982565937999 } F 0 F 12.461982565937999 F 0 F 12.461982565937999 #
-161 loop $-1 $-1 $162 $159 #
-162 coedge $-1 $164 $168 $-1 $170 forward $161 $163 #
-163 pcurve $-1 0 forward { exppc nubs 1 open 2
        0 1 12.461982565937999 1 
        0 0 
        12.461982565937999 0 
        0
        spline 0 { ref 45 } F 0 F 12.461982565937999 F 0 F 12.461982565937999 
        } 0 0 #
-164 coedge $-1 $166 $162 $-1 $172 forward $161 $165 #
-165 pcurve $-1 0 forward { exppc nubs 1 open 2
        0 1 12.461982565937999 1 
        12.461982565937999 0 
        12.461982565937999 12.461982565937999 
        0
        spline 0 { ref 45 } F 0 F 12.461982565937999 F 0 F 12.461982565937999 
        } 0 0 #
-166 coedge $-1 $168 $164 $-1 $174 forward $161 $167 #
-167 pcurve $-1 0 forward { exppc nubs 1 open 2
        -12.461982565937999 1 0 1 
        12.461982565937999 12.461982565937999 
        0 12.461982565937999 
        0
        spline 0 { ref 45 } F 0 F 12.461982565937999 F 0 F 12.461982565937999 
        } 0 0 #
-168 coedge $-1 $162 $166 $-1 $176 forward $161 $169 #
-169 pcurve $-1 0 forward { exppc nubs 1 open 2
        -12.461982565937999 1 0 1 
        0 12.461982565937999 
        0 0 
        0
        spline 0 { ref 45 } F 0 F 12.461982565937999 F 0 F 12.461982565937999 
        } 0 0 #
-170 edge $-1 $178 $180 $162 $171 forward #
-171 intcurve-curve $-1 forward { exactcur nubs 1 open 2
        0 1 12.461982565937999 1 
        304.88595517036799 263.91718566371202 168 
        317.34793773630599 263.91718566371202 168 
        0
        null_surface
        null_surface
        nullbs
        nullbs
        I I
        0
        0
        0
        F 0 F 12.461982565937999 } F 0 F 12.461982565937999 #
-172 edge $-1 $180 $182 $164 $173 forward #
-173 intcurve-curve $-1 forward { exactcur nubs 1 open 2
        0 1 12.461982565937999 1 
        317.34793773630599 263.91718566371202 168 
        317.34793773630599 276.37916822965002 168 
        0
        null_surface
        null_surface
        nullbs
        nullbs
        I I
        0
        0
        0
        F 0 F 12.461982565937999 } F 0 F 12.461982565937999 #
-174 edge $-1 $182 $184 $166 $175 forward #
-175 intcurve-curve $-1 forward { exactcur nubs 1 open 2
        -12.461982565937999 1 -0 1 
        317.34793773630599 276.37916822965002 168 
        304.88595517036799 276.37916822965002 168 
        0
        null_surface
        null_surface
        nullbs
        nullbs
        I I
        0
        0
        0
        F -12.461982565937999 F -0 } F -12.461982565937999 F -0 #
-176 edge $-1 $184 $178 $168 $177 forward #
-177 intcurve-curve $-1 forward { exactcur nubs 1 open 2
        -12.461982565937999 1 -0 1 
        304.88595517036799 276.37916822965002 168 
        304.88595517036799 263.91718566371202 168 
        0
        null_surface
        null_surface
        nullbs
        nullbs
        I I
        0
        0
        0
        F -12.461982565937999 F -0 } F -12.461982565937999 F -0 #
-178 vertex $-1 $170 $179 #
-179 point $-1 304.88595517036799 263.91718566371202 168 #
-180 vertex $-1 $172 $181 #
-181 point $-1 317.34793773630599 263.91718566371202 168 #
-182 vertex $-1 $174 $183 #
-183 point $-1 317.34793773630599 276.37916822965002 168 #
-184 vertex $-1 $176 $185 #
-185 point $-1 304.88595517036799 276.37916822965002 168 #
End-of-ACIS-data
