400 0 1 0        
7 Unknown 13 ACIS 5.0.1 NT 24 Mon Jul 22 23:21:26 2013
25.399999999999999 9.9999999999999995e-007 1e-010 
-0 body $-1 $2 $-1 $1 #                                                                                            
-1 transform $-1 1 0 0 0 1 0 0 0 1 0 0 0 1 0 0 0 #
-2 lump $-1 $-1 $3 $0 #
-3 shell $-1 $-1 $-1 $4 $-1 $2 #
-4 face $-1 $-1 $6 $3 $-1 $5 forward single #
-5 spline-surface $-1 forward { exactsur nubs 1 1 open open none none 2 2
        0 1 745.42619983423401 1 
        0 1 742.22767087317095 1 
        0 0 168 
        8.5599999999999996e-14 745.42619983423401 168 
        742.22767087317095 -8.53e-14 168 
        742.22767087317095 745.42619983423401 168 
        0
        0
        0
        0
        0
        0
        0
        F 0 F 745.42619983423401 F 0 F 742.22767087317095 } F 0 F 745.42619983423401 F 0 F 742.22767087317095 #
-6 loop $-1 $-1 $7 $4 #
-7 coedge $-1 $9 $13 $-1 $15 forward $6 $8 #
-8 pcurve $-1 0 forward { exppc nubs 1 open 2
        0 1 745.42619983423401 1 
        0 0 
        745.42619983423401 0 
        0
        spline 0 { ref 0 } F 0 F 745.42619983423401 F 0 F 742.22767087317095 
        } 0 0 #
-9 coedge $-1 $11 $7 $-1 $17 forward $6 $10 #
-10 pcurve $-1 0 forward { exppc nubs 1 open 2
        0 1 742.22767087317095 1 
        745.42619983423401 0 
        745.42619983423401 742.22767087317095 
        0
        spline 0 { ref 0 } F 0 F 745.42619983423401 F 0 F 742.22767087317095 
        } 0 0 #
-11 coedge $-1 $13 $9 $-1 $19 forward $6 $12 #
-12 pcurve $-1 0 forward { exppc nubs 1 open 2
        -745.42619983423401 1 0 1 
        745.42619983423401 742.22767087317095 
        0 742.22767087317095 
        0
        spline 0 { ref 0 } F 0 F 745.42619983423401 F 0 F 742.22767087317095 
        } 0 0 #
-13 coedge $-1 $7 $11 $-1 $21 forward $6 $14 #
-14 pcurve $-1 0 forward { exppc nubs 1 open 2
        -742.22767087317095 1 0 1 
        0 742.22767087317095 
        0 0 
        0
        spline 0 { ref 0 } F 0 F 745.42619983423401 F 0 F 742.22767087317095 
        } 0 0 #
-15 edge $-1 $23 $25 $7 $16 forward #
-16 intcurve-curve $-1 forward { exactcur nubs 1 open 2
        0 1 745.42619983423401 1 
        0 0 168 
        8.5599999999999996e-14 745.42619983423401 168 
        0
        null_surface
        null_surface
        nullbs
        nullbs
        I I
        0
        0
        0
        F 0 F 745.42619983423401 } F 0 F 745.42619983423401 #
-17 edge $-1 $25 $27 $9 $18 forward #
-18 intcurve-curve $-1 forward { exactcur nubs 1 open 2
        0 1 742.22767087317095 1 
        8.5599999999999996e-14 745.42619983423401 168 
        742.22767087317095 745.42619983423401 168 
        0
        null_surface
        null_surface
        nullbs
        nullbs
        I I
        0
        0
        0
        F 0 F 742.22767087317095 } F 0 F 742.22767087317095 #
-19 edge $-1 $27 $29 $11 $20 forward #
-20 intcurve-curve $-1 forward { exactcur nubs 1 open 2
        -745.42619983423401 1 -0 1 
        742.22767087317095 745.42619983423401 168 
        742.22767087317095 -8.53e-14 168 
        0
        null_surface
        null_surface
        nullbs
        nullbs
        I I
        0
        0
        0
        F -745.42619983423401 F -0 } F -745.42619983423401 F -0 #
-21 edge $-1 $29 $23 $13 $22 forward #
-22 intcurve-curve $-1 forward { exactcur nubs 1 open 2
        -742.22767087317095 1 -0 1 
        742.22767087317095 -8.53e-14 168 
        0 0 168 
        0
        null_surface
        null_surface
        nullbs
        nullbs
        I I
        0
        0
        0
        F -742.22767087317095 F -0 } F -742.22767087317095 F -0 #
-23 vertex $-1 $15 $24 #
-24 point $-1 0 0 168 #
-25 vertex $-1 $17 $26 #
-26 point $-1 8.5599999999999996e-14 745.42619983423401 168 #
-27 vertex $-1 $19 $28 #
-28 point $-1 742.22767087317095 745.42619983423401 168 #
-29 vertex $-1 $21 $30 #
-30 point $-1 742.22767087317095 -8.53e-14 168 #
End-of-ACIS-data
